<svg width="108" height="105" viewBox="0 0 108 105" fill="none" xmlns="http://www.w3.org/2000/svg">
<g filter="url(#filter0_d_133_77)">
<circle cx="50.52" cy="51.48" r="47.52" fill="white"/>
</g>
<circle cx="49.4699" cy="51.921" r="44.6031" stroke="#3FA5FB" stroke-width="3.36627" stroke-dasharray="3.37 3.37"/>
<path d="M78.9181 79.896C77.2089 81.4706 77.0999 84.1326 78.6745 85.8418C80.2491 87.5509 82.9112 87.66 84.6203 86.0853L78.9181 79.896ZM64.6183 6.47636L66.9235 55.0096L107.802 28.7467L64.6183 6.47636ZM90.7066 46.8716L94.5026 45.0561L94.376 44.7914L94.2139 44.5468L90.7066 46.8716ZM85.3334 79.7069L88.1846 82.8016L85.3334 79.7069ZM91.3809 48.2816L87.5849 50.0971L91.3809 48.2816ZM84.6203 86.0853L88.1846 82.8016L82.4823 76.6122L78.9181 79.896L84.6203 86.0853ZM95.177 46.4661L94.5026 45.0561L86.9105 48.6871L87.5849 50.0971L95.177 46.4661ZM94.2139 44.5468C92.207 41.5192 90.3426 38.6865 88.6115 36.0373L81.5666 40.6409C83.3085 43.3066 85.183 46.1546 87.1993 49.1964L94.2139 44.5468ZM88.1846 82.8016C98.2394 73.5382 101.076 58.7996 95.177 46.4661L87.5849 50.0971C91.8894 59.0973 89.8196 69.8524 82.4823 76.6122L88.1846 82.8016Z" fill="#3FA5FB"/>
<circle cx="49.4699" cy="51.921" r="44.6031" stroke="#3FA5FB" stroke-width="3.36627" stroke-dasharray="3.37 3.37"/>
<path d="M78.9181 79.896C77.2089 81.4706 77.0999 84.1326 78.6745 85.8418C80.2491 87.5509 82.9112 87.66 84.6203 86.0853L78.9181 79.896ZM64.6183 6.47636L66.9235 55.0096L107.802 28.7467L64.6183 6.47636ZM90.7066 46.8716L94.5026 45.0561L94.376 44.7914L94.2139 44.5468L90.7066 46.8716ZM85.3334 79.7069L88.1846 82.8016L85.3334 79.7069ZM91.3809 48.2816L87.5849 50.0971L91.3809 48.2816ZM84.6203 86.0853L88.1846 82.8016L82.4823 76.6122L78.9181 79.896L84.6203 86.0853ZM95.177 46.4661L94.5026 45.0561L86.9105 48.6871L87.5849 50.0971L95.177 46.4661ZM94.2139 44.5468C92.207 41.5192 90.3426 38.6865 88.6115 36.0373L81.5666 40.6409C83.3085 43.3066 85.183 46.1546 87.1993 49.1964L94.2139 44.5468ZM88.1846 82.8016C98.2394 73.5382 101.076 58.7996 95.177 46.4661L87.5849 50.0971C91.8894 59.0973 89.8196 69.8524 82.4823 76.6122L88.1846 82.8016Z" fill="#3FA5FB"/>
<path d="M3.18359 0V-1.68314H1.50046V0H3.18359ZM100.864 0H102.547V-1.68314H100.864V0ZM100.864 98.2071V99.8902H102.547V98.2071H100.864ZM3.18359 98.2071H1.50046V99.8902H3.18359V98.2071ZM3.18359 1.68314H100.864V-1.68314H3.18359V1.68314ZM99.1805 0V98.2071H102.547V0H99.1805ZM100.864 96.5239H3.18359V99.8902H100.864V96.5239ZM4.86673 98.2071V0H1.50046V98.2071H4.86673Z" fill="white"/>
<defs>
<filter id="filter0_d_133_77" x="0.36" y="3.95996" width="100.32" height="100.32" filterUnits="userSpaceOnUse" color-interpolation-filters="sRGB">
<feFlood flood-opacity="0" result="BackgroundImageFix"/>
<feColorMatrix in="SourceAlpha" type="matrix" values="0 0 0 0 0 0 0 0 0 0 0 0 0 0 0 0 0 0 127 0" result="hardAlpha"/>
<feOffset dy="2.64"/>
<feGaussianBlur stdDeviation="1.32"/>
<feComposite in2="hardAlpha" operator="out"/>
<feColorMatrix type="matrix" values="0 0 0 0 0 0 0 0 0 0 0 0 0 0 0 0 0 0 0.25 0"/>
<feBlend mode="normal" in2="BackgroundImageFix" result="effect1_dropShadow_133_77"/>
<feBlend mode="normal" in="SourceGraphic" in2="effect1_dropShadow_133_77" result="shape"/>
</filter>
</defs>
</svg>
