<svg width="68" height="68" viewBox="0 0 68 68" fill="none" xmlns="http://www.w3.org/2000/svg">
<g filter="url(#filter0_d_133_248)">
<path d="M64 30C64 22.0435 60.8393 14.4129 55.2132 8.7868C49.5871 3.16071 41.9565 0 34 0C26.0435 0 18.4129 3.16071 12.7868 8.7868C7.16071 14.4129 4 22.0435 4 30C4 37.9565 7.16071 45.5871 12.7868 51.2132C18.4129 56.8393 26.0435 60 34 60C41.9565 60 49.5871 56.8393 55.2132 51.2132C60.8393 45.5871 64 37.9565 64 30Z" fill="#FDF1CB"/>
</g>
<path d="M35.3684 43.9675C35.7313 43.6159 35.9352 43.139 35.9352 42.6418V31.7811V20.9205L44.2408 28.9708C44.6041 29.3229 45.097 29.5206 45.6109 29.5206C46.1247 29.5206 46.6176 29.3229 46.9809 28.9708C47.3443 28.6188 47.5484 28.1413 47.5484 27.6435C47.5484 27.1456 47.3443 26.6682 46.9809 26.3161L35.3701 15.0674C35.1904 14.8928 34.9768 14.7543 34.7417 14.6598C34.5066 14.5653 34.2546 14.5166 34 14.5166C33.7455 14.5166 33.4935 14.5653 33.2584 14.6598C33.0233 14.7543 32.8097 14.8928 32.63 15.0674L21.0192 26.3161C20.6558 26.6682 20.4517 27.1456 20.4517 27.6435C20.4517 28.1413 20.6558 28.6188 21.0192 28.9708C21.3825 29.3229 21.8754 29.5206 22.3892 29.5206C22.9031 29.5206 23.3959 29.3229 23.7593 28.9708L32.0649 20.9205V42.6418C32.0649 43.139 32.2688 43.6159 32.6317 43.9675C32.9946 44.3191 33.4868 44.5166 34 44.5166C34.5133 44.5166 35.0055 44.3191 35.3684 43.9675Z" fill="#AA4747" stroke="#AA4747" stroke-width="2"/>
<defs>
<filter id="filter0_d_133_248" x="0" y="0" width="68" height="68" filterUnits="userSpaceOnUse" color-interpolation-filters="sRGB">
<feFlood flood-opacity="0" result="BackgroundImageFix"/>
<feColorMatrix in="SourceAlpha" type="matrix" values="0 0 0 0 0 0 0 0 0 0 0 0 0 0 0 0 0 0 127 0" result="hardAlpha"/>
<feOffset dy="4"/>
<feGaussianBlur stdDeviation="2"/>
<feComposite in2="hardAlpha" operator="out"/>
<feColorMatrix type="matrix" values="0 0 0 0 0 0 0 0 0 0 0 0 0 0 0 0 0 0 0.25 0"/>
<feBlend mode="normal" in2="BackgroundImageFix" result="effect1_dropShadow_133_248"/>
<feBlend mode="normal" in="SourceGraphic" in2="effect1_dropShadow_133_248" result="shape"/>
</filter>
</defs>
</svg>
