<svg width="178" height="177" viewBox="0 0 178 177" fill="none" xmlns="http://www.w3.org/2000/svg">
<g filter="url(#filter0_d_250_77)">
<circle cx="95.2755" cy="51.2755" r="51.2755" fill="#3FA5FB"/>
<circle cx="95.2755" cy="51.2755" r="50.4485" stroke="white" stroke-width="1.65405"/>
</g>
<g filter="url(#filter1_d_250_77)">
<path d="M93.0777 89.1796V17.0029H97.7015V89.1796H93.0777ZM105.342 40.8268C105.117 38.5525 104.149 36.7857 102.438 35.5263C100.728 34.267 98.4064 33.6373 95.4742 33.6373C93.4818 33.6373 91.7996 33.9193 90.4275 34.4832C89.0554 35.0282 88.0028 35.7895 87.2697 36.7669C86.5555 37.7443 86.1984 38.8532 86.1984 40.0938C86.1608 41.1276 86.3769 42.0298 86.8468 42.8004C87.3355 43.571 88.0028 44.2383 88.8486 44.8022C89.6944 45.3473 90.6718 45.8266 91.7808 46.2401C92.8897 46.6348 94.0739 46.9731 95.3332 47.2551L100.521 48.4956C103.04 49.0595 105.352 49.8113 107.457 50.7511C109.562 51.6909 111.385 52.8469 112.926 54.219C114.468 55.5911 115.661 57.2076 116.507 59.0684C117.372 60.9292 117.813 63.0625 117.832 65.4684C117.813 69.0021 116.911 72.0658 115.125 74.6597C113.359 77.2347 110.802 79.2365 107.457 80.665C104.13 82.0747 100.117 82.7795 95.4178 82.7795C90.7564 82.7795 86.6965 82.0653 83.238 80.6368C79.7983 79.2083 77.1105 77.0937 75.1745 74.2931C73.2573 71.4737 72.2517 67.9871 72.1577 63.8332H83.971C84.1026 65.7691 84.6571 67.3856 85.6345 68.6825C86.6307 69.9607 87.9558 70.9286 89.6098 71.5865C91.2827 72.2256 93.1717 72.5451 95.2768 72.5451C97.3444 72.5451 99.1394 72.2444 100.662 71.6429C102.203 71.0414 103.397 70.205 104.243 69.1336C105.088 68.0623 105.511 66.8311 105.511 65.4402C105.511 64.1433 105.126 63.0531 104.355 62.1697C103.603 61.2863 102.495 60.5344 101.028 59.9142C99.5811 59.2939 97.8049 58.73 95.6997 58.2225L89.4125 56.6437C84.5443 55.4595 80.7005 53.6081 77.8811 51.0894C75.0617 48.5708 73.6614 45.1781 73.6802 40.9114C73.6614 37.4153 74.5918 34.361 76.4714 31.7483C78.3698 29.1357 80.9731 27.0963 84.2812 25.6302C87.5893 24.1641 91.3485 23.4311 95.5588 23.4311C99.8443 23.4311 103.585 24.1641 106.78 25.6302C109.994 27.0963 112.494 29.1357 114.28 31.7483C116.065 34.361 116.986 37.3871 117.043 40.8268H105.342Z" fill="white"/>
<path d="M93.0777 89.1796H91.4237V90.8336H93.0777V89.1796ZM93.0777 17.0029V15.3488H91.4237V17.0029H93.0777ZM97.7015 17.0029H99.3556V15.3488H97.7015V17.0029ZM97.7015 89.1796V90.8336H99.3556V89.1796H97.7015ZM105.342 40.8268L103.696 40.9901L103.844 42.4809H105.342V40.8268ZM90.4275 34.4832L91.0381 36.0204L91.0472 36.0168L91.0562 36.0131L90.4275 34.4832ZM87.2697 36.7669L85.9465 35.7744L85.9403 35.7827L85.9343 35.791L87.2697 36.7669ZM86.1984 40.0938L87.8513 40.1539L87.8524 40.1238V40.0938H86.1984ZM86.8468 42.8004L85.4346 43.6615L85.4422 43.6739L85.45 43.6862L86.8468 42.8004ZM88.8486 44.8022L87.9311 46.1784L87.9418 46.1856L87.9526 46.1925L88.8486 44.8022ZM91.7808 46.2401L91.2029 47.7899L91.2145 47.7942L91.2261 47.7984L91.7808 46.2401ZM95.3332 47.2551L95.7179 45.6464L95.7063 45.6436L95.6946 45.641L95.3332 47.2551ZM100.521 48.4956L100.136 50.1043L100.148 50.1071L100.16 50.1097L100.521 48.4956ZM107.457 50.7511L106.782 52.2615L107.457 50.7511ZM112.926 54.219L114.026 52.9836L114.026 52.9836L112.926 54.219ZM116.507 59.0684L115.001 59.7528L115.007 59.7653L116.507 59.0684ZM117.832 65.4684L119.486 65.4772L119.486 65.4663L119.486 65.4555L117.832 65.4684ZM115.125 74.6597L113.763 73.7218L113.762 73.7239L115.125 74.6597ZM107.457 80.665L108.102 82.188L108.106 82.1862L107.457 80.665ZM83.238 80.6368L82.6036 82.1644L82.6065 82.1656L83.238 80.6368ZM75.1745 74.2931L73.8067 75.2233L73.8139 75.2337L75.1745 74.2931ZM72.1577 63.8331V62.1791H70.4658L70.5041 63.8706L72.1577 63.8331ZM83.971 63.8331L85.6213 63.721L85.5165 62.1791H83.971V63.8331ZM85.6345 68.6825L84.3135 69.678L84.3216 69.6887L84.3299 69.6993L85.6345 68.6825ZM89.6098 71.5865L88.9986 73.1235L89.009 73.1276L89.0196 73.1316L89.6098 71.5865ZM100.662 71.6429L100.061 70.102L100.054 70.1045L100.662 71.6429ZM104.243 69.1336L105.541 70.1586L104.243 69.1336ZM104.355 62.1697L103.096 63.2417L103.102 63.2494L103.109 63.257L104.355 62.1697ZM101.028 59.9142L100.377 61.4345L100.384 61.4375L101.028 59.9142ZM95.6997 58.2225L95.2969 59.8268L95.3045 59.8287L95.3121 59.8305L95.6997 58.2225ZM89.4125 56.6437L89.8153 55.0394L89.8034 55.0365L89.4125 56.6437ZM77.8811 51.0894L76.7792 52.323L77.8811 51.0894ZM73.6802 40.9114L75.3342 40.9187L75.3343 40.9106L75.3342 40.9025L73.6802 40.9114ZM76.4714 31.7483L75.1333 30.776L75.1287 30.7824L76.4714 31.7483ZM106.78 25.6302L106.09 27.1336L106.094 27.1351L106.78 25.6302ZM114.28 31.7483L112.914 32.6817L112.914 32.6817L114.28 31.7483ZM117.043 40.8268V42.4809H118.724L118.696 40.7997L117.043 40.8268ZM94.7318 89.1796V17.0029H91.4237V89.1796H94.7318ZM93.0777 18.6569H97.7015V15.3488H93.0777V18.6569ZM96.0475 17.0029V89.1796H99.3556V17.0029H96.0475ZM97.7015 87.5255H93.0777V90.8336H97.7015V87.5255ZM106.988 40.6636C106.72 37.9629 105.538 35.7544 103.419 34.1944L101.457 36.8583C102.76 37.817 103.513 39.1421 103.696 40.9901L106.988 40.6636ZM103.419 34.1944C101.334 32.6594 98.6279 31.9833 95.4742 31.9833V35.2914C98.1849 35.2914 100.121 35.8746 101.457 36.8583L103.419 34.1944ZM95.4742 31.9833C93.3359 31.9833 91.426 32.2845 89.7987 32.9533L91.0562 36.0131C92.1731 35.554 93.6278 35.2914 95.4742 35.2914V31.9833ZM89.8168 32.946C88.2208 33.58 86.8972 34.5069 85.9465 35.7744L88.593 37.7593C89.1084 37.0721 89.8899 36.4765 91.0381 36.0204L89.8168 32.946ZM85.9343 35.791C85.0076 37.0591 84.5443 38.5117 84.5443 40.0938H87.8524C87.8524 39.1948 88.1034 38.4295 88.6052 37.7428L85.9343 35.791ZM84.5454 40.0337C84.4978 41.3428 84.7722 42.5752 85.4346 43.6615L88.259 41.9393C87.9816 41.4843 87.8237 40.9123 87.8513 40.1539L84.5454 40.0337ZM85.45 43.6862C86.0759 44.6732 86.915 45.501 87.9311 46.1784L89.7661 43.4259C89.0906 42.9756 88.5952 42.4689 88.2437 41.9146L85.45 43.6862ZM87.9526 46.1925C88.9141 46.8121 90.0014 47.3419 91.2029 47.7899L92.3587 44.6903C91.3422 44.3112 90.4748 43.8824 89.7446 43.4118L87.9526 46.1925ZM91.2261 47.7984C92.404 48.2176 93.6532 48.5739 94.9719 48.8692L95.6946 45.641C94.4946 45.3723 93.3755 45.052 92.3354 44.6818L91.2261 47.7984ZM94.9485 48.8638L100.136 50.1043L100.906 46.8869L95.7179 45.6464L94.9485 48.8638ZM100.16 50.1097C102.583 50.6523 104.789 51.3716 106.782 52.2615L108.131 49.2407C105.914 48.2511 103.496 47.4666 100.882 46.8815L100.16 50.1097ZM106.782 52.2615C108.75 53.1401 110.426 54.2076 111.826 55.4544L114.026 52.9836C112.344 51.4861 110.373 50.2418 108.131 49.2407L106.782 52.2615ZM111.826 55.4544C113.197 56.6747 114.252 58.104 115.001 59.7528L118.013 58.3839C117.071 56.3111 115.738 54.5075 114.026 52.9836L111.826 55.4544ZM115.007 59.7653C115.756 61.3779 116.161 63.2714 116.178 65.4813L119.486 65.4555C119.466 62.8536 118.987 60.4804 118.007 58.3714L115.007 59.7653ZM116.178 65.4596C116.161 68.7034 115.338 71.4341 113.763 73.7218L116.488 75.5976C118.484 72.6976 119.466 69.3007 119.486 65.4772L116.178 65.4596ZM113.762 73.7239C112.2 75.9996 109.913 77.8179 106.807 79.1438L108.106 82.1862C111.692 80.6551 114.517 78.4699 116.489 75.5955L113.762 73.7239ZM106.811 79.142C103.74 80.4435 99.9587 81.1255 95.4178 81.1255V84.4336C100.275 84.4336 104.52 83.7059 108.102 82.188L106.811 79.142ZM95.4178 81.1255C90.9216 81.1255 87.085 80.4362 83.8694 79.108L82.6065 82.1656C86.3079 83.6944 90.5912 84.4336 95.4178 84.4336V81.1255ZM83.8724 79.1092C80.6975 77.7907 78.2736 75.8674 76.5351 73.3526L73.8139 75.2337C75.9474 78.3201 78.8992 80.6259 82.6036 82.1644L83.8724 79.1092ZM76.5423 73.363C74.8402 70.86 73.8997 67.701 73.8114 63.7957L70.5041 63.8706C70.6037 68.2732 71.6744 72.0874 73.8067 75.2232L76.5423 73.363ZM72.1577 65.4872H83.971V62.1791H72.1577V65.4872ZM82.3208 63.9453C82.4698 66.1382 83.1081 68.0785 84.3135 69.678L86.9554 67.687C86.2061 66.6927 85.7354 65.4001 85.6213 63.721L82.3208 63.9453ZM84.3299 69.6993C85.5243 71.2318 87.099 72.3679 88.9986 73.1235L90.2211 70.0496C88.8126 69.4894 87.737 68.6895 86.9391 67.6657L84.3299 69.6993ZM89.0196 73.1316C90.9108 73.8541 93.0047 74.1992 95.2768 74.1992V70.8911C93.3387 70.8911 91.6546 70.597 90.2001 70.0414L89.0196 73.1316ZM95.2768 74.1992C97.4999 74.1992 99.5102 73.8764 101.27 73.1813L100.054 70.1045C98.7687 70.6124 97.1889 70.8911 95.2768 70.8911V74.1992ZM101.263 73.1838C103.02 72.498 104.478 71.5053 105.541 70.1586L102.944 68.1087C102.316 68.9047 101.386 69.5848 100.061 70.102L101.263 73.1838ZM105.541 70.1586C106.622 68.7893 107.165 67.1954 107.165 65.4402H103.857C103.857 66.4668 103.555 67.3352 102.944 68.1087L105.541 70.1586ZM107.165 65.4402C107.165 63.7892 106.664 62.2998 105.602 61.0824L103.109 63.257C103.588 63.8064 103.857 64.4974 103.857 65.4402H107.165ZM105.615 61.0977C104.646 59.9588 103.293 59.0762 101.673 58.3909L100.384 61.4375C101.696 61.9927 102.561 62.6138 103.096 63.2417L105.615 61.0977ZM101.68 58.3939C100.122 57.7263 98.2519 57.1364 96.0874 56.6146L95.3121 59.8305C97.3579 60.3237 99.0399 60.8615 100.377 61.4345L101.68 58.3939ZM96.1026 56.6183L89.8153 55.0394L89.0096 58.2479L95.2969 59.8268L96.1026 56.6183ZM89.8034 55.0365C85.1167 53.8965 81.5446 52.1442 78.9831 49.8559L76.7792 52.323C79.8564 55.072 83.972 57.0226 89.0215 58.2509L89.8034 55.0365ZM78.9831 49.8559C76.5644 47.6952 75.3172 44.7796 75.3342 40.9187L72.0262 40.9041C72.0056 45.5766 73.559 49.4463 76.7792 52.323L78.9831 49.8559ZM75.3342 40.9025C75.3171 37.7243 76.1566 35.0183 77.8141 32.7143L75.1287 30.7824C73.0271 33.7037 72.0057 37.1064 72.0262 40.9203L75.3342 40.9025ZM77.8095 32.7206C79.5168 30.371 81.8768 28.505 84.9513 27.1424L83.611 24.118C80.0694 25.6876 77.2228 27.9004 75.1333 30.7761L77.8095 32.7206ZM84.9513 27.1424C88.0167 25.7839 91.5419 25.0852 95.5588 25.0852V21.7771C91.1551 21.7771 87.1619 22.5444 83.611 24.118L84.9513 27.1424ZM95.5588 25.0852C99.6572 25.0852 103.153 25.7861 106.09 27.1336L107.47 24.1269C104.016 22.5422 100.031 21.7771 95.5588 21.7771V25.0852ZM106.094 27.1351C109.066 28.4911 111.318 30.346 112.914 32.6817L115.645 30.815C113.67 27.9254 110.922 25.7016 107.466 24.1254L106.094 27.1351ZM112.914 32.6817C114.501 35.0037 115.337 37.7086 115.389 40.8539L118.696 40.7997C118.635 37.0657 117.629 33.7183 115.645 30.815L112.914 32.6817ZM117.043 39.1728H105.342V42.4809H117.043V39.1728Z" fill="white"/>
</g>
<g filter="url(#filter2_d_250_77)">
<rect x="4" y="126" width="170" height="43" rx="20" fill="#FBDC7E" shape-rendering="crispEdges"/>
<path d="M43.7216 156V138.545H50.4034C51.6648 138.545 52.7131 138.744 53.5483 139.142C54.3892 139.534 55.017 140.071 55.4318 140.753C55.8523 141.435 56.0625 142.207 56.0625 143.071C56.0625 143.781 55.9261 144.389 55.6534 144.895C55.3807 145.395 55.0142 145.801 54.554 146.114C54.0938 146.426 53.5795 146.651 53.0114 146.787V146.957C53.6307 146.991 54.2244 147.182 54.7926 147.528C55.3665 147.869 55.8352 148.352 56.1989 148.977C56.5625 149.602 56.7443 150.358 56.7443 151.244C56.7443 152.148 56.5256 152.96 56.0881 153.682C55.6506 154.398 54.9915 154.963 54.1108 155.378C53.2301 155.793 52.1222 156 50.7869 156H43.7216ZM46.8835 153.358H50.2841C51.4318 153.358 52.2585 153.139 52.7642 152.702C53.2756 152.259 53.5312 151.69 53.5312 150.997C53.5312 150.48 53.4034 150.014 53.1477 149.599C52.892 149.179 52.5284 148.849 52.0568 148.611C51.5852 148.366 51.0227 148.244 50.3693 148.244H46.8835V153.358ZM46.8835 145.969H50.0114C50.5568 145.969 51.0483 145.869 51.4858 145.67C51.9233 145.466 52.267 145.179 52.517 144.81C52.7727 144.435 52.9006 143.991 52.9006 143.48C52.9006 142.804 52.6619 142.247 52.1847 141.81C51.7131 141.372 51.0114 141.153 50.0795 141.153H46.8835V145.969ZM63.1257 156.264C62.2962 156.264 61.549 156.116 60.8842 155.821C60.2251 155.52 59.7024 155.077 59.3161 154.491C58.9354 153.906 58.745 153.185 58.745 152.327C58.745 151.588 58.8814 150.977 59.1541 150.494C59.4268 150.011 59.799 149.625 60.2706 149.335C60.7422 149.045 61.2734 148.827 61.8643 148.679C62.4609 148.526 63.0774 148.415 63.7138 148.347C64.4808 148.267 65.103 148.196 65.5803 148.134C66.0575 148.065 66.4041 147.963 66.62 147.827C66.8416 147.685 66.9524 147.466 66.9524 147.17V147.119C66.9524 146.477 66.7621 145.98 66.3814 145.628C66.0007 145.276 65.4524 145.099 64.7365 145.099C63.9808 145.099 63.3814 145.264 62.9382 145.594C62.5007 145.923 62.2053 146.312 62.0518 146.761L59.1712 146.352C59.3984 145.557 59.7734 144.892 60.2962 144.358C60.8189 143.818 61.4581 143.415 62.2138 143.148C62.9695 142.875 63.8047 142.739 64.7195 142.739C65.3501 142.739 65.978 142.812 66.603 142.96C67.228 143.108 67.799 143.352 68.3161 143.693C68.8331 144.028 69.2479 144.486 69.5604 145.065C69.8786 145.645 70.0376 146.369 70.0376 147.239V156H67.0717V154.202H66.9695C66.782 154.565 66.5178 154.906 66.1768 155.224C65.8416 155.537 65.4183 155.79 64.907 155.983C64.4013 156.17 63.8075 156.264 63.1257 156.264ZM63.9268 153.997C64.5462 153.997 65.0831 153.875 65.5376 153.631C65.9922 153.381 66.3416 153.051 66.5859 152.642C66.8359 152.233 66.9609 151.787 66.9609 151.304V149.761C66.8643 149.841 66.6996 149.915 66.4666 149.983C66.2393 150.051 65.9837 150.111 65.6996 150.162C65.4155 150.213 65.1342 150.259 64.8558 150.298C64.5774 150.338 64.3359 150.372 64.1314 150.401C63.6712 150.463 63.2592 150.565 62.8956 150.707C62.532 150.849 62.245 151.048 62.0348 151.304C61.8246 151.554 61.7195 151.878 61.7195 152.276C61.7195 152.844 61.9268 153.273 62.3416 153.562C62.7564 153.852 63.2848 153.997 63.9268 153.997ZM76.2251 148.33V156H73.1399V142.909H76.0888V145.134H76.2422C76.5433 144.401 77.0234 143.818 77.6825 143.386C78.3473 142.955 79.1683 142.739 80.1456 142.739C81.049 142.739 81.8359 142.932 82.5064 143.318C83.1825 143.705 83.7053 144.264 84.0746 144.997C84.4496 145.73 84.6342 146.619 84.6286 147.665V156H81.5433V148.142C81.5433 147.267 81.3161 146.582 80.8615 146.088C80.4126 145.594 79.7905 145.347 78.995 145.347C78.4553 145.347 77.9751 145.466 77.5547 145.705C77.1399 145.937 76.8132 146.276 76.5746 146.719C76.3416 147.162 76.2251 147.699 76.2251 148.33ZM90.5774 151.892L90.5689 148.168H91.0632L95.7678 142.909H99.3729L93.5859 149.352H92.9467L90.5774 151.892ZM87.7649 156V138.545H90.8501V156H87.7649ZM95.9808 156L91.7195 150.043L93.799 147.869L99.6712 156H95.9808ZM101.429 156V142.909H104.514V156H101.429ZM102.98 141.051C102.491 141.051 102.071 140.889 101.719 140.565C101.366 140.236 101.19 139.841 101.19 139.381C101.19 138.915 101.366 138.52 101.719 138.196C102.071 137.866 102.491 137.702 102.98 137.702C103.474 137.702 103.895 137.866 104.241 138.196C104.594 138.52 104.77 138.915 104.77 139.381C104.77 139.841 104.594 140.236 104.241 140.565C103.895 140.889 103.474 141.051 102.98 141.051ZM110.772 148.33V156H107.687V142.909H110.636V145.134H110.789C111.09 144.401 111.57 143.818 112.229 143.386C112.894 142.955 113.715 142.739 114.692 142.739C115.596 142.739 116.383 142.932 117.053 143.318C117.729 143.705 118.252 144.264 118.621 144.997C118.996 145.73 119.181 146.619 119.175 147.665V156H116.09V148.142C116.09 147.267 115.863 146.582 115.408 146.088C114.96 145.594 114.337 145.347 113.542 145.347C113.002 145.347 112.522 145.466 112.102 145.705C111.687 145.937 111.36 146.276 111.121 146.719C110.888 147.162 110.772 147.699 110.772 148.33ZM128.005 161.182C126.897 161.182 125.945 161.031 125.15 160.73C124.354 160.435 123.715 160.037 123.232 159.537C122.749 159.037 122.414 158.483 122.227 157.875L125.005 157.202C125.13 157.457 125.312 157.71 125.55 157.96C125.789 158.216 126.11 158.426 126.513 158.591C126.923 158.761 127.437 158.847 128.056 158.847C128.931 158.847 129.656 158.634 130.229 158.207C130.803 157.787 131.09 157.094 131.09 156.128V153.648H130.937C130.778 153.966 130.545 154.293 130.238 154.628C129.937 154.963 129.536 155.244 129.036 155.472C128.542 155.699 127.92 155.812 127.17 155.812C126.164 155.812 125.252 155.577 124.434 155.105C123.621 154.628 122.974 153.918 122.491 152.974C122.013 152.026 121.775 150.838 121.775 149.412C121.775 147.974 122.013 146.761 122.491 145.773C122.974 144.778 123.624 144.026 124.442 143.514C125.261 142.997 126.173 142.739 127.178 142.739C127.945 142.739 128.576 142.869 129.07 143.131C129.57 143.386 129.968 143.696 130.263 144.06C130.559 144.418 130.783 144.756 130.937 145.074H131.107V142.909H134.15V156.213C134.15 157.332 133.883 158.259 133.349 158.991C132.815 159.724 132.085 160.273 131.158 160.636C130.232 161 129.181 161.182 128.005 161.182ZM128.031 153.392C128.684 153.392 129.241 153.233 129.701 152.915C130.161 152.597 130.511 152.139 130.749 151.543C130.988 150.946 131.107 150.23 131.107 149.395C131.107 148.571 130.988 147.849 130.749 147.23C130.516 146.611 130.17 146.131 129.71 145.79C129.255 145.443 128.695 145.27 128.031 145.27C127.343 145.27 126.769 145.449 126.309 145.807C125.849 146.165 125.502 146.656 125.269 147.281C125.036 147.901 124.92 148.605 124.92 149.395C124.92 150.196 125.036 150.898 125.269 151.5C125.508 152.097 125.857 152.562 126.317 152.898C126.783 153.227 127.354 153.392 128.031 153.392Z" fill="#222222"/>
</g>
<defs>
<filter id="filter0_d_250_77" x="41.2058" y="0" width="108.139" height="108.139" filterUnits="userSpaceOnUse" color-interpolation-filters="sRGB">
<feFlood flood-opacity="0" result="BackgroundImageFix"/>
<feColorMatrix in="SourceAlpha" type="matrix" values="0 0 0 0 0 0 0 0 0 0 0 0 0 0 0 0 0 0 127 0" result="hardAlpha"/>
<feOffset dy="2.79422"/>
<feGaussianBlur stdDeviation="1.39711"/>
<feComposite in2="hardAlpha" operator="out"/>
<feColorMatrix type="matrix" values="0 0 0 0 0 0 0 0 0 0 0 0 0 0 0 0 0 0 0.25 0"/>
<feBlend mode="normal" in2="BackgroundImageFix" result="effect1_dropShadow_250_77"/>
<feBlend mode="normal" in="SourceGraphic" in2="effect1_dropShadow_250_77" result="shape"/>
</filter>
<filter id="filter1_d_250_77" x="69.3635" y="17.0029" width="51.2628" height="77.7652" filterUnits="userSpaceOnUse" color-interpolation-filters="sRGB">
<feFlood flood-opacity="0" result="BackgroundImageFix"/>
<feColorMatrix in="SourceAlpha" type="matrix" values="0 0 0 0 0 0 0 0 0 0 0 0 0 0 0 0 0 0 127 0" result="hardAlpha"/>
<feOffset dy="2.79422"/>
<feGaussianBlur stdDeviation="1.39711"/>
<feComposite in2="hardAlpha" operator="out"/>
<feColorMatrix type="matrix" values="0 0 0 0 0 0 0 0 0 0 0 0 0 0 0 0 0 0 0.25 0"/>
<feBlend mode="normal" in2="BackgroundImageFix" result="effect1_dropShadow_250_77"/>
<feBlend mode="normal" in="SourceGraphic" in2="effect1_dropShadow_250_77" result="shape"/>
</filter>
<filter id="filter2_d_250_77" x="0" y="126" width="178" height="51" filterUnits="userSpaceOnUse" color-interpolation-filters="sRGB">
<feFlood flood-opacity="0" result="BackgroundImageFix"/>
<feColorMatrix in="SourceAlpha" type="matrix" values="0 0 0 0 0 0 0 0 0 0 0 0 0 0 0 0 0 0 127 0" result="hardAlpha"/>
<feOffset dy="4"/>
<feGaussianBlur stdDeviation="2"/>
<feComposite in2="hardAlpha" operator="out"/>
<feColorMatrix type="matrix" values="0 0 0 0 0 0 0 0 0 0 0 0 0 0 0 0 0 0 0.25 0"/>
<feBlend mode="normal" in2="BackgroundImageFix" result="effect1_dropShadow_250_77"/>
<feBlend mode="normal" in="SourceGraphic" in2="effect1_dropShadow_250_77" result="shape"/>
</filter>
</defs>
</svg>
