<svg width="87" height="123" viewBox="0 0 87 123" fill="none" xmlns="http://www.w3.org/2000/svg">
<g filter="url(#filter0_d_133_78)">
<path d="M4 22.7628C4 10.1912 14.1913 0 26.7628 0H60.2376C72.8091 0 83.0004 10.1913 83.0004 22.7628V93.7293C83.0004 106.301 72.8091 116.492 60.2376 116.492H26.7628C14.1912 116.492 4 106.301 4 93.7293V22.7628Z" fill="#3FA5FB"/>
</g>
<g filter="url(#filter1_d_133_78)">
<path d="M13.373 33.4299C13.373 23.8414 21.146 16.0684 30.7345 16.0684H42.8308L56.2661 16.0684C65.8546 16.0684 73.6276 23.8414 73.6276 33.4298V83.7214C73.6276 93.3098 65.8546 101.083 56.2661 101.083H30.7345C21.1461 101.083 13.373 93.3099 13.373 83.7214V33.4299Z" fill="white"/>
</g>
<g filter="url(#filter2_d_133_78)">
<rect x="41" y="106" width="8.03394" height="6.69495" rx="2.67798" fill="white"/>
</g>
<defs>
<filter id="filter0_d_133_78" x="0.794294" y="0" width="85.4118" height="122.904" filterUnits="userSpaceOnUse" color-interpolation-filters="sRGB">
<feFlood flood-opacity="0" result="BackgroundImageFix"/>
<feColorMatrix in="SourceAlpha" type="matrix" values="0 0 0 0 0 0 0 0 0 0 0 0 0 0 0 0 0 0 127 0" result="hardAlpha"/>
<feOffset dy="3.20571"/>
<feGaussianBlur stdDeviation="1.60285"/>
<feComposite in2="hardAlpha" operator="out"/>
<feColorMatrix type="matrix" values="0 0 0 0 0 0 0 0 0 0 0 0 0 0 0 0 0 0 0.25 0"/>
<feBlend mode="normal" in2="BackgroundImageFix" result="effect1_dropShadow_133_78"/>
<feBlend mode="normal" in="SourceGraphic" in2="effect1_dropShadow_133_78" result="shape"/>
</filter>
<filter id="filter1_d_133_78" x="10.1673" y="16.0684" width="66.6659" height="91.4261" filterUnits="userSpaceOnUse" color-interpolation-filters="sRGB">
<feFlood flood-opacity="0" result="BackgroundImageFix"/>
<feColorMatrix in="SourceAlpha" type="matrix" values="0 0 0 0 0 0 0 0 0 0 0 0 0 0 0 0 0 0 127 0" result="hardAlpha"/>
<feOffset dy="3.20571"/>
<feGaussianBlur stdDeviation="1.60285"/>
<feComposite in2="hardAlpha" operator="out"/>
<feColorMatrix type="matrix" values="0 0 0 0 0 0 0 0 0 0 0 0 0 0 0 0 0 0 0.25 0"/>
<feBlend mode="normal" in2="BackgroundImageFix" result="effect1_dropShadow_133_78"/>
<feBlend mode="normal" in="SourceGraphic" in2="effect1_dropShadow_133_78" result="shape"/>
</filter>
<filter id="filter2_d_133_78" x="37.7943" y="106" width="14.4453" height="13.1067" filterUnits="userSpaceOnUse" color-interpolation-filters="sRGB">
<feFlood flood-opacity="0" result="BackgroundImageFix"/>
<feColorMatrix in="SourceAlpha" type="matrix" values="0 0 0 0 0 0 0 0 0 0 0 0 0 0 0 0 0 0 127 0" result="hardAlpha"/>
<feOffset dy="3.20571"/>
<feGaussianBlur stdDeviation="1.60285"/>
<feComposite in2="hardAlpha" operator="out"/>
<feColorMatrix type="matrix" values="0 0 0 0 0 0 0 0 0 0 0 0 0 0 0 0 0 0 0.25 0"/>
<feBlend mode="normal" in2="BackgroundImageFix" result="effect1_dropShadow_133_78"/>
<feBlend mode="normal" in="SourceGraphic" in2="effect1_dropShadow_133_78" result="shape"/>
</filter>
</defs>
</svg>
