<svg width="109" height="109" viewBox="0 0 109 109" fill="none" xmlns="http://www.w3.org/2000/svg">
<g filter="url(#filter0_d_133_76)">
<circle cx="54.2755" cy="51.2755" r="51.2755" fill="#3FA5FB"/>
<circle cx="54.2755" cy="51.2755" r="50.4485" stroke="white" stroke-width="1.65405"/>
</g>
<g filter="url(#filter1_d_133_76)">
<path d="M52.0777 89.1796V17.0029H56.7015V89.1796H52.0777ZM64.3421 40.8268C64.1166 38.5525 63.1486 36.7857 61.4381 35.5263C59.7277 34.267 57.4064 33.6373 54.4742 33.6373C52.4818 33.6373 50.7996 33.9193 49.4275 34.4832C48.0554 35.0282 47.0028 35.7895 46.2697 36.7669C45.5555 37.7443 45.1984 38.8532 45.1984 40.0938C45.1608 41.1276 45.3769 42.0298 45.8468 42.8004C46.3355 43.571 47.0028 44.2383 47.8486 44.8022C48.6944 45.3473 49.6718 45.8266 50.7808 46.2401C51.8897 46.6348 53.0739 46.9731 54.3332 47.2551L59.5209 48.4956C62.0396 49.0595 64.3515 49.8113 66.4567 50.7511C68.5618 51.6909 70.385 52.8469 71.9263 54.219C73.4676 55.5911 74.6611 57.2076 75.5069 59.0684C76.3716 60.9292 76.8133 63.0625 76.8321 65.4684C76.8133 69.0021 75.9111 72.0658 74.1254 74.6597C72.3586 77.2347 69.8024 79.2365 66.4567 80.665C63.1298 82.0747 59.1168 82.7795 54.4178 82.7795C49.7564 82.7795 45.6965 82.0653 42.238 80.6368C38.7983 79.2083 36.1105 77.0937 34.1745 74.2931C32.2573 71.4737 31.2517 67.9871 31.1577 63.8332H42.971C43.1026 65.7691 43.6571 67.3856 44.6345 68.6825C45.6307 69.9607 46.9558 70.9286 48.6098 71.5865C50.2827 72.2256 52.1717 72.5451 54.2768 72.5451C56.3444 72.5451 58.1394 72.2444 59.6619 71.6429C61.2032 71.0414 62.3967 70.205 63.2425 69.1336C64.0884 68.0623 64.5113 66.8311 64.5113 65.4402C64.5113 64.1433 64.126 63.0531 63.3553 62.1697C62.6035 61.2863 61.4945 60.5344 60.0284 59.9142C58.5811 59.2939 56.8049 58.73 54.6997 58.2225L48.4125 56.6437C43.5443 55.4595 39.7005 53.6081 36.8811 51.0894C34.0617 48.5708 32.6614 45.1781 32.6802 40.9114C32.6614 37.4153 33.5918 34.361 35.4714 31.7483C37.3698 29.1357 39.9731 27.0963 43.2812 25.6302C46.5893 24.1641 50.3485 23.4311 54.5588 23.4311C58.8443 23.4311 62.5847 24.1641 65.78 25.6302C68.9941 27.0963 71.494 29.1357 73.2796 31.7483C75.0652 34.361 75.9862 37.3871 76.0426 40.8268H64.3421Z" fill="white"/>
<path d="M52.0777 89.1796H50.4237V90.8336H52.0777V89.1796ZM52.0777 17.0029V15.3488H50.4237V17.0029H52.0777ZM56.7015 17.0029H58.3556V15.3488H56.7015V17.0029ZM56.7015 89.1796V90.8336H58.3556V89.1796H56.7015ZM64.3421 40.8268L62.6961 40.9901L62.844 42.4809H64.3421V40.8268ZM49.4275 34.4832L50.0381 36.0204L50.0472 36.0168L50.0562 36.0131L49.4275 34.4832ZM46.2697 36.7669L44.9465 35.7744L44.9403 35.7827L44.9343 35.791L46.2697 36.7669ZM45.1984 40.0938L46.8513 40.1539L46.8524 40.1238V40.0938H45.1984ZM45.8468 42.8004L44.4346 43.6615L44.4422 43.6739L44.45 43.6862L45.8468 42.8004ZM47.8486 44.8022L46.9311 46.1784L46.9418 46.1856L46.9526 46.1925L47.8486 44.8022ZM50.7808 46.2401L50.2029 47.7899L50.2145 47.7942L50.2261 47.7984L50.7808 46.2401ZM54.3332 47.2551L54.7179 45.6464L54.7063 45.6436L54.6946 45.641L54.3332 47.2551ZM59.5209 48.4956L59.1362 50.1043L59.1479 50.1071L59.1596 50.1097L59.5209 48.4956ZM66.4567 50.7511L65.7824 52.2615L66.4567 50.7511ZM71.9263 54.219L73.0261 52.9836L73.0261 52.9836L71.9263 54.219ZM75.5069 59.0684L74.0011 59.7528L74.0069 59.7653L75.5069 59.0684ZM76.8321 65.4684L78.4861 65.4772L78.4861 65.4663L78.4861 65.4555L76.8321 65.4684ZM74.1254 74.6597L72.763 73.7218L72.7616 73.7239L74.1254 74.6597ZM66.4567 80.665L67.102 82.188L67.1062 82.1862L66.4567 80.665ZM42.238 80.6368L41.6036 82.1644L41.6065 82.1656L42.238 80.6368ZM34.1745 74.2931L32.8067 75.2233L32.8139 75.2337L34.1745 74.2931ZM31.1577 63.8331V62.1791H29.4658L29.5041 63.8706L31.1577 63.8331ZM42.971 63.8331L44.6213 63.721L44.5165 62.1791H42.971V63.8331ZM44.6345 68.6825L43.3135 69.678L43.3216 69.6887L43.3299 69.6993L44.6345 68.6825ZM48.6098 71.5865L47.9986 73.1235L48.009 73.1276L48.0196 73.1316L48.6098 71.5865ZM59.6619 71.6429L59.0606 70.102L59.0542 70.1045L59.6619 71.6429ZM63.2425 69.1336L64.5408 70.1586L63.2425 69.1336ZM63.3553 62.1697L62.0957 63.2417L62.1022 63.2494L62.1089 63.257L63.3553 62.1697ZM60.0284 59.9142L59.3769 61.4345L59.3839 61.4375L60.0284 59.9142ZM54.6997 58.2225L54.2969 59.8268L54.3045 59.8287L54.3121 59.8305L54.6997 58.2225ZM48.4125 56.6437L48.8153 55.0394L48.8034 55.0365L48.4125 56.6437ZM36.8811 51.0894L35.7792 52.323L36.8811 51.0894ZM32.6802 40.9114L34.3342 40.9187L34.3343 40.9106L34.3342 40.9025L32.6802 40.9114ZM35.4714 31.7483L34.1333 30.776L34.1287 30.7824L35.4714 31.7483ZM65.78 25.6302L65.0902 27.1336L65.0936 27.1351L65.78 25.6302ZM73.2796 31.7483L71.914 32.6817L71.914 32.6817L73.2796 31.7483ZM76.0426 40.8268V42.4809H77.724L77.6965 40.7997L76.0426 40.8268ZM53.7318 89.1796V17.0029H50.4237V89.1796H53.7318ZM52.0777 18.6569H56.7015V15.3488H52.0777V18.6569ZM55.0475 17.0029V89.1796H58.3556V17.0029H55.0475ZM56.7015 87.5255H52.0777V90.8336H56.7015V87.5255ZM65.9881 40.6636C65.7202 37.9629 64.5376 35.7544 62.4188 34.1944L60.4574 36.8583C61.7595 37.817 62.5129 39.1421 62.6961 40.9901L65.9881 40.6636ZM62.4188 34.1944C60.334 32.6594 57.6279 31.9833 54.4742 31.9833V35.2914C57.1849 35.2914 59.1213 35.8746 60.4574 36.8583L62.4188 34.1944ZM54.4742 31.9833C52.3359 31.9833 50.426 32.2845 48.7987 32.9533L50.0562 36.0131C51.1731 35.554 52.6278 35.2914 54.4742 35.2914V31.9833ZM48.8168 32.946C47.2208 33.58 45.8972 34.5069 44.9465 35.7744L47.593 37.7593C48.1084 37.0721 48.8899 36.4765 50.0381 36.0204L48.8168 32.946ZM44.9343 35.791C44.0076 37.0591 43.5443 38.5117 43.5443 40.0938H46.8524C46.8524 39.1948 47.1034 38.4295 47.6052 37.7428L44.9343 35.791ZM43.5454 40.0337C43.4978 41.3428 43.7722 42.5752 44.4346 43.6615L47.259 41.9393C46.9816 41.4843 46.8237 40.9123 46.8513 40.1539L43.5454 40.0337ZM44.45 43.6862C45.0759 44.6732 45.915 45.501 46.9311 46.1784L48.7661 43.4259C48.0906 42.9756 47.5952 42.4689 47.2437 41.9146L44.45 43.6862ZM46.9526 46.1925C47.9141 46.8121 49.0014 47.3419 50.2029 47.7899L51.3587 44.6903C50.3422 44.3112 49.4748 43.8824 48.7446 43.4118L46.9526 46.1925ZM50.2261 47.7984C51.404 48.2176 52.6532 48.5739 53.9719 48.8692L54.6946 45.641C53.4946 45.3723 52.3755 45.052 51.3354 44.6818L50.2261 47.7984ZM53.9485 48.8638L59.1362 50.1043L59.9056 46.8869L54.7179 45.6464L53.9485 48.8638ZM59.1596 50.1097C61.5833 50.6523 63.7889 51.3716 65.7824 52.2615L67.1309 49.2407C64.9141 48.2511 62.4959 47.4666 59.8823 46.8815L59.1596 50.1097ZM65.7824 52.2615C67.7504 53.1401 69.426 54.2076 70.8265 55.4544L73.0261 52.9836C71.3441 51.4861 69.3732 50.2418 67.1309 49.2407L65.7824 52.2615ZM70.8265 55.4544C72.1972 56.6747 73.2517 58.104 74.0012 59.7528L77.0127 58.3839C76.0705 56.3111 74.738 54.5075 73.0261 52.9836L70.8265 55.4544ZM74.0069 59.7653C74.7562 61.3779 75.1608 63.2714 75.1781 65.4813L78.4861 65.4555C78.4657 62.8536 77.9869 60.4804 77.007 58.3714L74.0069 59.7653ZM75.178 65.4596C75.1608 68.7034 74.3379 71.4341 72.763 73.7218L75.4879 75.5976C77.4842 72.6976 78.4658 69.3007 78.4861 65.4772L75.178 65.4596ZM72.7616 73.7239C71.2001 75.9996 68.9125 77.8179 65.8072 79.1438L67.1062 82.1862C70.6922 80.6551 73.5171 78.4699 75.4893 75.5955L72.7616 73.7239ZM65.8113 79.142C62.74 80.4435 58.9587 81.1255 54.4178 81.1255V84.4336C59.2749 84.4336 63.5196 83.7059 67.102 82.188L65.8113 79.142ZM54.4178 81.1255C49.9216 81.1255 46.085 80.4362 42.8694 79.108L41.6065 82.1656C45.3079 83.6944 49.5912 84.4336 54.4178 84.4336V81.1255ZM42.8724 79.1092C39.6975 77.7907 37.2736 75.8674 35.5351 73.3526L32.8139 75.2337C34.9474 78.3201 37.8992 80.6259 41.6036 82.1644L42.8724 79.1092ZM35.5423 73.363C33.8402 70.86 32.8997 67.701 32.8114 63.7957L29.5041 63.8706C29.6037 68.2732 30.6744 72.0874 32.8067 75.2232L35.5423 73.363ZM31.1577 65.4872H42.971V62.1791H31.1577V65.4872ZM41.3208 63.9453C41.4698 66.1382 42.1081 68.0785 43.3135 69.678L45.9554 67.687C45.2061 66.6927 44.7354 65.4001 44.6213 63.721L41.3208 63.9453ZM43.3299 69.6993C44.5243 71.2318 46.099 72.3679 47.9986 73.1235L49.2211 70.0496C47.8126 69.4894 46.737 68.6895 45.9391 67.6657L43.3299 69.6993ZM48.0196 73.1316C49.9108 73.8541 52.0047 74.1992 54.2768 74.1992V70.8911C52.3387 70.8911 50.6546 70.597 49.2001 70.0414L48.0196 73.1316ZM54.2768 74.1992C56.4999 74.1992 58.5102 73.8764 60.2696 73.1813L59.0542 70.1045C57.7687 70.6124 56.1889 70.8911 54.2768 70.8911V74.1992ZM60.2632 73.1838C62.0205 72.498 63.4776 71.5053 64.5408 70.1586L61.9443 68.1087C61.3159 68.9047 60.3859 69.5848 59.0606 70.102L60.2632 73.1838ZM64.5408 70.1586C65.6218 68.7893 66.1653 67.1954 66.1653 65.4402H62.8572C62.8572 66.4668 62.555 67.3352 61.9443 68.1087L64.5408 70.1586ZM66.1653 65.4402C66.1653 63.7892 65.6638 62.2998 64.6018 61.0824L62.1089 63.257C62.5882 63.8064 62.8572 64.4974 62.8572 65.4402H66.1653ZM64.6149 61.0977C63.6457 59.9588 62.2927 59.0762 60.6729 58.3909L59.3839 61.4375C60.6963 61.9927 61.5612 62.6138 62.0957 63.2417L64.6149 61.0977ZM60.68 58.3939C59.1224 57.7263 57.2519 57.1364 55.0874 56.6146L54.3121 59.8305C56.3579 60.3237 58.0399 60.8615 59.3769 61.4345L60.68 58.3939ZM55.1026 56.6183L48.8153 55.0394L48.0096 58.2479L54.2969 59.8268L55.1026 56.6183ZM48.8034 55.0365C44.1167 53.8965 40.5446 52.1442 37.9831 49.8559L35.7792 52.323C38.8564 55.072 42.972 57.0226 48.0215 58.2509L48.8034 55.0365ZM37.9831 49.8559C35.5644 47.6952 34.3172 44.7796 34.3342 40.9187L31.0262 40.9041C31.0056 45.5766 32.559 49.4463 35.7792 52.323L37.9831 49.8559ZM34.3342 40.9025C34.3171 37.7243 35.1566 35.0183 36.8141 32.7143L34.1287 30.7824C32.0271 33.7037 31.0057 37.1064 31.0262 40.9203L34.3342 40.9025ZM36.8095 32.7206C38.5168 30.371 40.8768 28.505 43.9513 27.1424L42.611 24.118C39.0694 25.6876 36.2228 27.9004 34.1333 30.7761L36.8095 32.7206ZM43.9513 27.1424C47.0167 25.7839 50.5419 25.0852 54.5588 25.0852V21.7771C50.1551 21.7771 46.1619 22.5444 42.611 24.118L43.9513 27.1424ZM54.5588 25.0852C58.6572 25.0852 62.1533 25.7861 65.0902 27.1336L66.4698 24.1269C63.016 22.5422 59.0313 21.7771 54.5588 21.7771V25.0852ZM65.0936 27.1351C68.0662 28.4911 70.3177 30.346 71.914 32.6817L74.6452 30.815C72.6703 27.9254 69.922 25.7016 66.4664 24.1254L65.0936 27.1351ZM71.914 32.6817C73.501 35.0037 74.3372 37.7086 74.3888 40.8539L77.6965 40.7997C77.6352 37.0657 76.6295 33.7183 74.6452 30.815L71.914 32.6817ZM76.0426 39.1728H64.3421V42.4809H76.0426V39.1728Z" fill="white"/>
</g>
<defs>
<filter id="filter0_d_133_76" x="0.20578" y="0" width="108.139" height="108.139" filterUnits="userSpaceOnUse" color-interpolation-filters="sRGB">
<feFlood flood-opacity="0" result="BackgroundImageFix"/>
<feColorMatrix in="SourceAlpha" type="matrix" values="0 0 0 0 0 0 0 0 0 0 0 0 0 0 0 0 0 0 127 0" result="hardAlpha"/>
<feOffset dy="2.79422"/>
<feGaussianBlur stdDeviation="1.39711"/>
<feComposite in2="hardAlpha" operator="out"/>
<feColorMatrix type="matrix" values="0 0 0 0 0 0 0 0 0 0 0 0 0 0 0 0 0 0 0.25 0"/>
<feBlend mode="normal" in2="BackgroundImageFix" result="effect1_dropShadow_133_76"/>
<feBlend mode="normal" in="SourceGraphic" in2="effect1_dropShadow_133_76" result="shape"/>
</filter>
<filter id="filter1_d_133_76" x="28.3635" y="17.0029" width="51.2628" height="77.7652" filterUnits="userSpaceOnUse" color-interpolation-filters="sRGB">
<feFlood flood-opacity="0" result="BackgroundImageFix"/>
<feColorMatrix in="SourceAlpha" type="matrix" values="0 0 0 0 0 0 0 0 0 0 0 0 0 0 0 0 0 0 127 0" result="hardAlpha"/>
<feOffset dy="2.79422"/>
<feGaussianBlur stdDeviation="1.39711"/>
<feComposite in2="hardAlpha" operator="out"/>
<feColorMatrix type="matrix" values="0 0 0 0 0 0 0 0 0 0 0 0 0 0 0 0 0 0 0.25 0"/>
<feBlend mode="normal" in2="BackgroundImageFix" result="effect1_dropShadow_133_76"/>
<feBlend mode="normal" in="SourceGraphic" in2="effect1_dropShadow_133_76" result="shape"/>
</filter>
</defs>
</svg>
