<svg width="244" height="57" viewBox="0 0 244 57" fill="none" xmlns="http://www.w3.org/2000/svg">
<g filter="url(#filter0_d_198_74)">
<rect x="4" width="236" height="49" rx="17" fill="#FBDC7D"/>
<path d="M56.8571 21.4049H47.2143V12.1192C47.2143 10.9797 46.2547 10.0557 45.0714 10.0557H42.9286C41.7453 10.0557 40.7857 10.9797 40.7857 12.1192V21.4049H31.1429C29.9596 21.4049 29 22.3289 29 23.4684V25.5319C29 26.6713 29.9596 27.5953 31.1429 27.5953H40.7857V36.8811C40.7857 38.0205 41.7453 38.9446 42.9286 38.9446H45.0714C46.2547 38.9446 47.2143 38.0205 47.2143 36.8811V27.5953H56.8571C58.0404 27.5953 59 26.6713 59 25.5319V23.4684C59 22.3289 58.0404 21.4049 56.8571 21.4049Z" fill="#AA4747"/>
<path d="M90.6619 21.4347H87.4744C87.3835 20.9119 87.2159 20.4489 86.9716 20.0455C86.7273 19.6364 86.4233 19.2898 86.0597 19.0057C85.696 18.7216 85.2813 18.5085 84.8153 18.3665C84.3551 18.2188 83.858 18.1449 83.3239 18.1449C82.375 18.1449 81.5341 18.3835 80.8011 18.8608C80.0682 19.3324 79.4943 20.0256 79.0795 20.9403C78.6648 21.8494 78.4574 22.9602 78.4574 24.2727C78.4574 25.608 78.6648 26.733 79.0795 27.6477C79.5 28.5568 80.0739 29.2443 80.8011 29.7102C81.5341 30.1705 82.3722 30.4006 83.3153 30.4006C83.8381 30.4006 84.3267 30.3324 84.7812 30.196C85.2415 30.054 85.6534 29.8466 86.017 29.5739C86.3864 29.3011 86.696 28.9659 86.946 28.5682C87.2017 28.1705 87.3778 27.7159 87.4744 27.2045L90.6619 27.2216C90.5426 28.0511 90.2841 28.8295 89.8864 29.5568C89.4943 30.2841 88.9801 30.9261 88.3438 31.483C87.7074 32.0341 86.9631 32.4659 86.1108 32.7784C85.2585 33.0852 84.3125 33.2386 83.2727 33.2386C81.7386 33.2386 80.3693 32.8835 79.1648 32.1733C77.9602 31.4631 77.0114 30.4375 76.3182 29.0966C75.625 27.7557 75.2784 26.1477 75.2784 24.2727C75.2784 22.392 75.6278 20.7841 76.3267 19.4489C77.0256 18.108 77.9773 17.0824 79.1818 16.3722C80.3864 15.6619 81.75 15.3068 83.2727 15.3068C84.2443 15.3068 85.1477 15.4432 85.983 15.7159C86.8182 15.9886 87.5625 16.3892 88.2159 16.9176C88.8693 17.4403 89.4063 18.0824 89.8267 18.8438C90.2528 19.5994 90.5313 20.4631 90.6619 21.4347ZM93.9012 33V19.9091H96.8926V22.0909H97.029C97.2676 21.3352 97.6767 20.7528 98.2563 20.3438C98.8415 19.929 99.5091 19.7216 100.259 19.7216C100.43 19.7216 100.62 19.7301 100.83 19.7472C101.046 19.7585 101.225 19.7784 101.367 19.8068V22.6449C101.236 22.5994 101.029 22.5597 100.745 22.5256C100.467 22.4858 100.197 22.4659 99.9353 22.4659C99.3728 22.4659 98.8671 22.5881 98.4182 22.8324C97.975 23.071 97.6256 23.4034 97.3699 23.8295C97.1142 24.2557 96.9864 24.7472 96.9864 25.304V33H93.9012ZM109.153 33.2557C107.841 33.2557 106.707 32.983 105.753 32.4375C104.804 31.8864 104.074 31.108 103.562 30.1023C103.051 29.0909 102.795 27.9006 102.795 26.5312C102.795 25.1847 103.051 24.0028 103.562 22.9858C104.079 21.9631 104.801 21.1676 105.727 20.5994C106.653 20.0256 107.741 19.7386 108.991 19.7386C109.798 19.7386 110.559 19.8693 111.275 20.1307C111.997 20.3864 112.633 20.7841 113.184 21.3239C113.741 21.8636 114.179 22.5511 114.497 23.3864C114.815 24.2159 114.974 25.2045 114.974 26.3523V27.2983H104.244V25.2188H112.017C112.011 24.6278 111.883 24.1023 111.633 23.642C111.383 23.1761 111.034 22.8097 110.585 22.5426C110.142 22.2756 109.625 22.142 109.034 22.142C108.403 22.142 107.849 22.2955 107.372 22.6023C106.895 22.9034 106.522 23.3011 106.255 23.7955C105.994 24.2841 105.861 24.821 105.855 25.4062V27.2216C105.855 27.983 105.994 28.6364 106.272 29.1818C106.551 29.7216 106.94 30.1364 107.44 30.4261C107.94 30.7102 108.525 30.8523 109.196 30.8523C109.645 30.8523 110.051 30.7898 110.415 30.6648C110.778 30.5341 111.094 30.3438 111.361 30.0938C111.628 29.8438 111.829 29.5341 111.966 29.1648L114.846 29.4886C114.665 30.25 114.318 30.9148 113.807 31.483C113.301 32.0455 112.653 32.483 111.863 32.7955C111.074 33.1023 110.17 33.2557 109.153 33.2557ZM121.831 33.2642C121.002 33.2642 120.255 33.1165 119.59 32.821C118.931 32.5199 118.408 32.0767 118.022 31.4915C117.641 30.9062 117.451 30.1847 117.451 29.3267C117.451 28.5881 117.587 27.9773 117.86 27.4943C118.132 27.0114 118.505 26.625 118.976 26.3352C119.448 26.0455 119.979 25.8267 120.57 25.679C121.167 25.5256 121.783 25.4148 122.419 25.3466C123.186 25.267 123.809 25.196 124.286 25.1335C124.763 25.0653 125.11 24.9631 125.326 24.8267C125.547 24.6847 125.658 24.4659 125.658 24.1705V24.1193C125.658 23.4773 125.468 22.9801 125.087 22.6278C124.706 22.2756 124.158 22.0994 123.442 22.0994C122.686 22.0994 122.087 22.2642 121.644 22.5938C121.206 22.9233 120.911 23.3125 120.757 23.7614L117.877 23.3523C118.104 22.5568 118.479 21.892 119.002 21.358C119.525 20.8182 120.164 20.4148 120.919 20.1477C121.675 19.875 122.51 19.7386 123.425 19.7386C124.056 19.7386 124.684 19.8125 125.309 19.9602C125.934 20.108 126.505 20.3523 127.022 20.6932C127.539 21.0284 127.953 21.4858 128.266 22.0653C128.584 22.6449 128.743 23.3693 128.743 24.2386V33H125.777V31.2017H125.675C125.488 31.5653 125.223 31.9062 124.882 32.2244C124.547 32.5369 124.124 32.7898 123.613 32.983C123.107 33.1705 122.513 33.2642 121.831 33.2642ZM122.632 30.9972C123.252 30.9972 123.789 30.875 124.243 30.6307C124.698 30.3807 125.047 30.0511 125.292 29.642C125.542 29.233 125.667 28.7869 125.667 28.304V26.7614C125.57 26.8409 125.405 26.9148 125.172 26.983C124.945 27.0511 124.689 27.1108 124.405 27.1619C124.121 27.2131 123.84 27.2585 123.561 27.2983C123.283 27.3381 123.042 27.3722 122.837 27.4006C122.377 27.4631 121.965 27.5653 121.601 27.7074C121.238 27.8494 120.951 28.0483 120.74 28.304C120.53 28.554 120.425 28.8778 120.425 29.2756C120.425 29.8438 120.632 30.2727 121.047 30.5625C121.462 30.8523 121.99 30.9972 122.632 30.9972ZM138.862 19.9091V22.2955H131.337V19.9091H138.862ZM133.195 16.7727H136.28V29.0625C136.28 29.4773 136.343 29.7955 136.468 30.017C136.598 30.233 136.769 30.3807 136.979 30.4602C137.189 30.5398 137.422 30.5795 137.678 30.5795C137.871 30.5795 138.047 30.5653 138.206 30.5369C138.371 30.5085 138.496 30.483 138.581 30.4602L139.101 32.8722C138.936 32.929 138.701 32.9915 138.394 33.0597C138.093 33.1278 137.723 33.1676 137.286 33.179C136.513 33.2017 135.817 33.0852 135.198 32.8295C134.578 32.5682 134.087 32.1648 133.723 31.6193C133.365 31.0739 133.189 30.392 133.195 29.5739V16.7727ZM147.578 33.2557C146.265 33.2557 145.132 32.983 144.177 32.4375C143.228 31.8864 142.498 31.108 141.987 30.1023C141.475 29.0909 141.22 27.9006 141.22 26.5312C141.22 25.1847 141.475 24.0028 141.987 22.9858C142.504 21.9631 143.225 21.1676 144.151 20.5994C145.078 20.0256 146.166 19.7386 147.416 19.7386C148.222 19.7386 148.984 19.8693 149.7 20.1307C150.421 20.3864 151.058 20.7841 151.609 21.3239C152.166 21.8636 152.603 22.5511 152.921 23.3864C153.239 24.2159 153.399 25.2045 153.399 26.3523V27.2983H142.668V25.2188H150.441C150.436 24.6278 150.308 24.1023 150.058 23.642C149.808 23.1761 149.458 22.8097 149.009 22.5426C148.566 22.2756 148.049 22.142 147.458 22.142C146.828 22.142 146.274 22.2955 145.796 22.6023C145.319 22.9034 144.947 23.3011 144.68 23.7955C144.418 24.2841 144.285 24.821 144.279 25.4062V27.2216C144.279 27.983 144.418 28.6364 144.697 29.1818C144.975 29.7216 145.364 30.1364 145.864 30.4261C146.364 30.7102 146.95 30.8523 147.62 30.8523C148.069 30.8523 148.475 30.7898 148.839 30.6648C149.203 30.5341 149.518 30.3438 149.785 30.0938C150.052 29.8438 150.254 29.5341 150.39 29.1648L153.271 29.4886C153.089 30.25 152.742 30.9148 152.231 31.483C151.725 32.0455 151.078 32.483 150.288 32.7955C149.498 33.1023 148.595 33.2557 147.578 33.2557ZM163.058 33V15.5455H169.604C170.945 15.5455 172.07 15.7955 172.979 16.2955C173.893 16.7955 174.584 17.483 175.05 18.358C175.521 19.2273 175.757 20.2159 175.757 21.3239C175.757 22.4432 175.521 23.4375 175.05 24.3068C174.578 25.1761 173.882 25.8608 172.962 26.3608C172.041 26.8551 170.908 27.1023 169.561 27.1023H165.223V24.5028H169.135C169.919 24.5028 170.561 24.3665 171.061 24.0938C171.561 23.821 171.93 23.446 172.169 22.9688C172.413 22.4915 172.535 21.9432 172.535 21.3239C172.535 20.7045 172.413 20.1591 172.169 19.6875C171.93 19.2159 171.558 18.8494 171.052 18.5881C170.552 18.321 169.908 18.1875 169.118 18.1875H166.22V33H163.058ZM184.37 33.2557C183.091 33.2557 181.983 32.9744 181.046 32.4119C180.108 31.8494 179.381 31.0625 178.864 30.0511C178.353 29.0398 178.097 27.858 178.097 26.5057C178.097 25.1534 178.353 23.9687 178.864 22.9517C179.381 21.9347 180.108 21.1449 181.046 20.5824C181.983 20.0199 183.091 19.7386 184.37 19.7386C185.648 19.7386 186.756 20.0199 187.694 20.5824C188.631 21.1449 189.356 21.9347 189.867 22.9517C190.384 23.9687 190.643 25.1534 190.643 26.5057C190.643 27.858 190.384 29.0398 189.867 30.0511C189.356 31.0625 188.631 31.8494 187.694 32.4119C186.756 32.9744 185.648 33.2557 184.37 33.2557ZM184.387 30.7841C185.08 30.7841 185.66 30.5937 186.126 30.2131C186.591 29.8267 186.938 29.3097 187.165 28.6619C187.398 28.0142 187.515 27.2926 187.515 26.4972C187.515 25.696 187.398 24.9716 187.165 24.3239C186.938 23.6705 186.591 23.1506 186.126 22.7642C185.66 22.3778 185.08 22.1847 184.387 22.1847C183.677 22.1847 183.086 22.3778 182.614 22.7642C182.148 23.1506 181.799 23.6705 181.566 24.3239C181.339 24.9716 181.225 25.696 181.225 26.4972C181.225 27.2926 181.339 28.0142 181.566 28.6619C181.799 29.3097 182.148 29.8267 182.614 30.2131C183.086 30.5937 183.677 30.7841 184.387 30.7841ZM204.088 23.3693L201.275 23.6761C201.196 23.392 201.057 23.125 200.858 22.875C200.664 22.625 200.403 22.4233 200.074 22.2699C199.744 22.1165 199.341 22.0398 198.863 22.0398C198.221 22.0398 197.682 22.179 197.244 22.4574C196.812 22.7358 196.599 23.0966 196.605 23.5398C196.599 23.9205 196.738 24.2301 197.022 24.4688C197.312 24.7074 197.789 24.9034 198.454 25.0568L200.687 25.5341C201.926 25.8011 202.846 26.2244 203.449 26.804C204.057 27.3835 204.363 28.142 204.369 29.0795C204.363 29.9034 204.122 30.6307 203.645 31.2614C203.173 31.8864 202.517 32.375 201.676 32.7273C200.835 33.0795 199.869 33.2557 198.778 33.2557C197.176 33.2557 195.886 32.9205 194.909 32.25C193.932 31.5739 193.349 30.6335 193.162 29.429L196.17 29.1392C196.307 29.7301 196.596 30.1761 197.039 30.4773C197.483 30.7784 198.059 30.929 198.77 30.929C199.503 30.929 200.091 30.7784 200.534 30.4773C200.983 30.1761 201.207 29.804 201.207 29.3608C201.207 28.9858 201.062 28.6761 200.772 28.4318C200.488 28.1875 200.045 28 199.443 27.8693L197.21 27.4006C195.954 27.1392 195.025 26.6989 194.423 26.0795C193.821 25.4545 193.522 24.6648 193.528 23.7102C193.522 22.9034 193.741 22.2045 194.184 21.6136C194.633 21.017 195.255 20.5568 196.051 20.233C196.852 19.9034 197.775 19.7386 198.821 19.7386C200.355 19.7386 201.562 20.0653 202.443 20.7188C203.329 21.3722 203.878 22.2557 204.088 23.3693ZM213.93 19.9091V22.2955H206.404V19.9091H213.93ZM208.262 16.7727H211.348V29.0625C211.348 29.4773 211.41 29.7955 211.535 30.017C211.666 30.233 211.836 30.3807 212.046 30.4602C212.257 30.5398 212.49 30.5795 212.745 30.5795C212.938 30.5795 213.115 30.5653 213.274 30.5369C213.438 30.5085 213.563 30.483 213.649 30.4602L214.169 32.8722C214.004 32.929 213.768 32.9915 213.461 33.0597C213.16 33.1278 212.791 33.1676 212.353 33.179C211.581 33.2017 210.885 33.0852 210.265 32.8295C209.646 32.5682 209.154 32.1648 208.791 31.6193C208.433 31.0739 208.257 30.392 208.262 29.5739V16.7727Z" fill="#222222"/>
</g>
<defs>
<filter id="filter0_d_198_74" x="0" y="0" width="244" height="57" filterUnits="userSpaceOnUse" color-interpolation-filters="sRGB">
<feFlood flood-opacity="0" result="BackgroundImageFix"/>
<feColorMatrix in="SourceAlpha" type="matrix" values="0 0 0 0 0 0 0 0 0 0 0 0 0 0 0 0 0 0 127 0" result="hardAlpha"/>
<feOffset dy="4"/>
<feGaussianBlur stdDeviation="2"/>
<feComposite in2="hardAlpha" operator="out"/>
<feColorMatrix type="matrix" values="0 0 0 0 0 0 0 0 0 0 0 0 0 0 0 0 0 0 0.25 0"/>
<feBlend mode="normal" in2="BackgroundImageFix" result="effect1_dropShadow_198_74"/>
<feBlend mode="normal" in="SourceGraphic" in2="effect1_dropShadow_198_74" result="shape"/>
</filter>
</defs>
</svg>
