<svg width="178" height="159" viewBox="0 0 178 159" fill="none" xmlns="http://www.w3.org/2000/svg">
<g filter="url(#filter0_d_250_78)">
<rect x="31" width="116" height="67.3547" rx="14.9677" fill="#3FA5FB"/>
<rect x="31.9355" y="0.935483" width="114.129" height="65.4838" rx="14.0322" stroke="white" stroke-width="1.87097"/>
</g>
<g filter="url(#filter1_d_250_78)">
<rect x="31" width="116" height="67.3547" rx="14.9677" fill="#3FA5FB"/>
<rect x="31.9355" y="0.935483" width="114.129" height="65.4838" rx="14.0322" stroke="white" stroke-width="1.87097"/>
</g>
<g filter="url(#filter2_d_250_78)">
<line x1="87.8281" y1="49.0567" x2="143.752" y2="4.15352" stroke="white" stroke-width="3.74193"/>
</g>
<g filter="url(#filter3_d_250_78)">
<line x1="89.3554" y1="47.9772" x2="31.756" y2="5.24434" stroke="white" stroke-width="3.74193"/>
</g>
<g filter="url(#filter4_d_250_78)">
<rect x="4" y="108" width="170" height="43" rx="20" fill="#FBDC7E"/>
<path d="M52.7216 138V120.545H64.0739V123.196H55.8835V127.935H63.4858V130.585H55.8835V135.349H64.142V138H52.7216ZM67.1634 138V124.909H70.1122V127.134H70.2656C70.5384 126.384 70.9901 125.798 71.6207 125.378C72.2514 124.952 73.0043 124.739 73.8793 124.739C74.7656 124.739 75.5128 124.955 76.1207 125.386C76.7344 125.812 77.1662 126.395 77.4162 127.134H77.5526C77.8423 126.406 78.331 125.827 79.0185 125.395C79.7116 124.957 80.5327 124.739 81.4815 124.739C82.6861 124.739 83.669 125.119 84.4304 125.881C85.1918 126.642 85.5724 127.753 85.5724 129.213V138H82.4787V129.69C82.4787 128.878 82.2628 128.284 81.831 127.909C81.3991 127.528 80.8707 127.338 80.2457 127.338C79.5014 127.338 78.919 127.571 78.4986 128.037C78.0838 128.497 77.8764 129.097 77.8764 129.835V138H74.8509V129.562C74.8509 128.886 74.6463 128.347 74.2372 127.943C73.8338 127.54 73.3054 127.338 72.652 127.338C72.2088 127.338 71.8054 127.452 71.4418 127.679C71.0781 127.901 70.7884 128.216 70.5724 128.625C70.3565 129.028 70.2486 129.5 70.2486 130.04V138H67.1634ZM92.4695 138.264C91.6399 138.264 90.8928 138.116 90.228 137.821C89.5689 137.52 89.0462 137.077 88.6598 136.491C88.2791 135.906 88.0888 135.185 88.0888 134.327C88.0888 133.588 88.2251 132.977 88.4979 132.494C88.7706 132.011 89.1428 131.625 89.6143 131.335C90.0859 131.045 90.6172 130.827 91.2081 130.679C91.8047 130.526 92.4212 130.415 93.0575 130.347C93.8246 130.267 94.4467 130.196 94.924 130.134C95.4013 130.065 95.7479 129.963 95.9638 129.827C96.1854 129.685 96.2962 129.466 96.2962 129.17V129.119C96.2962 128.477 96.1058 127.98 95.7251 127.628C95.3445 127.276 94.7962 127.099 94.0803 127.099C93.3246 127.099 92.7251 127.264 92.282 127.594C91.8445 127.923 91.549 128.312 91.3956 128.761L88.5149 128.352C88.7422 127.557 89.1172 126.892 89.6399 126.358C90.1626 125.818 90.8018 125.415 91.5575 125.148C92.3132 124.875 93.1484 124.739 94.0632 124.739C94.6939 124.739 95.3217 124.812 95.9467 124.96C96.5717 125.108 97.1428 125.352 97.6598 125.693C98.1768 126.028 98.5916 126.486 98.9041 127.065C99.2223 127.645 99.3814 128.369 99.3814 129.239V138H96.4155V136.202H96.3132C96.1257 136.565 95.8615 136.906 95.5206 137.224C95.1854 137.537 94.7621 137.79 94.2507 137.983C93.745 138.17 93.1513 138.264 92.4695 138.264ZM93.2706 135.997C93.8899 135.997 94.4268 135.875 94.8814 135.631C95.3359 135.381 95.6854 135.051 95.9297 134.642C96.1797 134.233 96.3047 133.787 96.3047 133.304V131.761C96.2081 131.841 96.0433 131.915 95.8104 131.983C95.5831 132.051 95.3274 132.111 95.0433 132.162C94.7592 132.213 94.478 132.259 94.1996 132.298C93.9212 132.338 93.6797 132.372 93.4751 132.401C93.0149 132.463 92.603 132.565 92.2393 132.707C91.8757 132.849 91.5888 133.048 91.3786 133.304C91.1683 133.554 91.0632 133.878 91.0632 134.276C91.0632 134.844 91.2706 135.273 91.6854 135.562C92.1001 135.852 92.6286 135.997 93.2706 135.997ZM102.484 138V124.909H105.569V138H102.484ZM104.035 123.051C103.546 123.051 103.126 122.889 102.773 122.565C102.421 122.236 102.245 121.841 102.245 121.381C102.245 120.915 102.421 120.52 102.773 120.196C103.126 119.866 103.546 119.702 104.035 119.702C104.529 119.702 104.95 119.866 105.296 120.196C105.648 120.52 105.825 120.915 105.825 121.381C105.825 121.841 105.648 122.236 105.296 122.565C104.95 122.889 104.529 123.051 104.035 123.051ZM111.827 120.545V138H108.741V120.545H111.827ZM125.346 128.369L122.533 128.676C122.454 128.392 122.315 128.125 122.116 127.875C121.923 127.625 121.661 127.423 121.332 127.27C121.002 127.116 120.599 127.04 120.121 127.04C119.479 127.04 118.94 127.179 118.502 127.457C118.07 127.736 117.857 128.097 117.863 128.54C117.857 128.92 117.996 129.23 118.281 129.469C118.57 129.707 119.048 129.903 119.712 130.057L121.945 130.534C123.184 130.801 124.104 131.224 124.707 131.804C125.315 132.384 125.621 133.142 125.627 134.08C125.621 134.903 125.38 135.631 124.903 136.261C124.431 136.886 123.775 137.375 122.934 137.727C122.093 138.08 121.127 138.256 120.036 138.256C118.434 138.256 117.144 137.92 116.167 137.25C115.19 136.574 114.607 135.634 114.42 134.429L117.428 134.139C117.565 134.73 117.854 135.176 118.298 135.477C118.741 135.778 119.317 135.929 120.028 135.929C120.761 135.929 121.349 135.778 121.792 135.477C122.241 135.176 122.465 134.804 122.465 134.361C122.465 133.986 122.32 133.676 122.031 133.432C121.746 133.187 121.303 133 120.701 132.869L118.468 132.401C117.212 132.139 116.283 131.699 115.681 131.08C115.079 130.455 114.781 129.665 114.786 128.71C114.781 127.903 114.999 127.205 115.442 126.614C115.891 126.017 116.513 125.557 117.309 125.233C118.11 124.903 119.033 124.739 120.079 124.739C121.613 124.739 122.82 125.065 123.701 125.719C124.587 126.372 125.136 127.256 125.346 128.369Z" fill="#222222"/>
</g>
<defs>
<filter id="filter0_d_250_78" x="28.5945" y="0" width="120.811" height="72.1655" filterUnits="userSpaceOnUse" color-interpolation-filters="sRGB">
<feFlood flood-opacity="0" result="BackgroundImageFix"/>
<feColorMatrix in="SourceAlpha" type="matrix" values="0 0 0 0 0 0 0 0 0 0 0 0 0 0 0 0 0 0 127 0" result="hardAlpha"/>
<feOffset dy="2.40553"/>
<feGaussianBlur stdDeviation="1.20276"/>
<feComposite in2="hardAlpha" operator="out"/>
<feColorMatrix type="matrix" values="0 0 0 0 0 0 0 0 0 0 0 0 0 0 0 0 0 0 0.25 0"/>
<feBlend mode="normal" in2="BackgroundImageFix" result="effect1_dropShadow_250_78"/>
<feBlend mode="normal" in="SourceGraphic" in2="effect1_dropShadow_250_78" result="shape"/>
</filter>
<filter id="filter1_d_250_78" x="28.5945" y="0" width="120.811" height="72.1655" filterUnits="userSpaceOnUse" color-interpolation-filters="sRGB">
<feFlood flood-opacity="0" result="BackgroundImageFix"/>
<feColorMatrix in="SourceAlpha" type="matrix" values="0 0 0 0 0 0 0 0 0 0 0 0 0 0 0 0 0 0 127 0" result="hardAlpha"/>
<feOffset dy="2.40553"/>
<feGaussianBlur stdDeviation="1.20276"/>
<feComposite in2="hardAlpha" operator="out"/>
<feColorMatrix type="matrix" values="0 0 0 0 0 0 0 0 0 0 0 0 0 0 0 0 0 0 0.25 0"/>
<feBlend mode="normal" in2="BackgroundImageFix" result="effect1_dropShadow_250_78"/>
<feBlend mode="normal" in="SourceGraphic" in2="effect1_dropShadow_250_78" result="shape"/>
</filter>
<filter id="filter2_d_250_78" x="84.2512" y="2.69434" width="63.0779" height="52.6323" filterUnits="userSpaceOnUse" color-interpolation-filters="sRGB">
<feFlood flood-opacity="0" result="BackgroundImageFix"/>
<feColorMatrix in="SourceAlpha" type="matrix" values="0 0 0 0 0 0 0 0 0 0 0 0 0 0 0 0 0 0 127 0" result="hardAlpha"/>
<feOffset dy="2.40553"/>
<feGaussianBlur stdDeviation="1.20276"/>
<feComposite in2="hardAlpha" operator="out"/>
<feColorMatrix type="matrix" values="0 0 0 0 0 0 0 0 0 0 0 0 0 0 0 0 0 0 0.25 0"/>
<feBlend mode="normal" in2="BackgroundImageFix" result="effect1_dropShadow_250_78"/>
<feBlend mode="normal" in="SourceGraphic" in2="effect1_dropShadow_250_78" result="shape"/>
</filter>
<filter id="filter3_d_250_78" x="28.2356" y="3.74219" width="64.6402" height="50.5484" filterUnits="userSpaceOnUse" color-interpolation-filters="sRGB">
<feFlood flood-opacity="0" result="BackgroundImageFix"/>
<feColorMatrix in="SourceAlpha" type="matrix" values="0 0 0 0 0 0 0 0 0 0 0 0 0 0 0 0 0 0 127 0" result="hardAlpha"/>
<feOffset dy="2.40553"/>
<feGaussianBlur stdDeviation="1.20276"/>
<feComposite in2="hardAlpha" operator="out"/>
<feColorMatrix type="matrix" values="0 0 0 0 0 0 0 0 0 0 0 0 0 0 0 0 0 0 0.25 0"/>
<feBlend mode="normal" in2="BackgroundImageFix" result="effect1_dropShadow_250_78"/>
<feBlend mode="normal" in="SourceGraphic" in2="effect1_dropShadow_250_78" result="shape"/>
</filter>
<filter id="filter4_d_250_78" x="0" y="108" width="178" height="51" filterUnits="userSpaceOnUse" color-interpolation-filters="sRGB">
<feFlood flood-opacity="0" result="BackgroundImageFix"/>
<feColorMatrix in="SourceAlpha" type="matrix" values="0 0 0 0 0 0 0 0 0 0 0 0 0 0 0 0 0 0 127 0" result="hardAlpha"/>
<feOffset dy="4"/>
<feGaussianBlur stdDeviation="2"/>
<feComposite in2="hardAlpha" operator="out"/>
<feColorMatrix type="matrix" values="0 0 0 0 0 0 0 0 0 0 0 0 0 0 0 0 0 0 0.25 0"/>
<feBlend mode="normal" in2="BackgroundImageFix" result="effect1_dropShadow_250_78"/>
<feBlend mode="normal" in="SourceGraphic" in2="effect1_dropShadow_250_78" result="shape"/>
</filter>
</defs>
</svg>
