<svg width="175" height="181" viewBox="0 0 175 181" fill="none" xmlns="http://www.w3.org/2000/svg">
<g filter="url(#filter0_d_250_79)">
<rect x="4" y="130" width="167" height="43" rx="20" fill="#FBDC7E"/>
<path d="M25.7216 142.545H29.5909L34.7727 155.193H34.9773L40.1591 142.545H44.0284V160H40.9943V148.009H40.8324L36.0085 159.949H33.7415L28.9176 147.983H28.7557V160H25.7216V142.545ZM53.1307 160.256C51.8182 160.256 50.6847 159.983 49.7301 159.438C48.7813 158.886 48.0511 158.108 47.5398 157.102C47.0284 156.091 46.7727 154.901 46.7727 153.531C46.7727 152.185 47.0284 151.003 47.5398 149.986C48.0568 148.963 48.7784 148.168 49.7045 147.599C50.6307 147.026 51.7188 146.739 52.9688 146.739C53.7756 146.739 54.5369 146.869 55.2528 147.131C55.9744 147.386 56.6108 147.784 57.1619 148.324C57.7188 148.864 58.1563 149.551 58.4744 150.386C58.7926 151.216 58.9517 152.205 58.9517 153.352V154.298H48.2216V152.219H55.9943C55.9886 151.628 55.8608 151.102 55.6108 150.642C55.3608 150.176 55.0114 149.81 54.5625 149.543C54.1193 149.276 53.6023 149.142 53.0114 149.142C52.3807 149.142 51.8267 149.295 51.3494 149.602C50.8722 149.903 50.5 150.301 50.233 150.795C49.9716 151.284 49.8381 151.821 49.8324 152.406V154.222C49.8324 154.983 49.9716 155.636 50.25 156.182C50.5284 156.722 50.9176 157.136 51.4176 157.426C51.9176 157.71 52.5028 157.852 53.1733 157.852C53.6222 157.852 54.0284 157.79 54.392 157.665C54.7557 157.534 55.071 157.344 55.3381 157.094C55.6051 156.844 55.8068 156.534 55.9432 156.165L58.8239 156.489C58.642 157.25 58.2955 157.915 57.7841 158.483C57.2784 159.045 56.6307 159.483 55.8409 159.795C55.0511 160.102 54.1477 160.256 53.1307 160.256ZM71.9084 150.369L69.0959 150.676C69.0163 150.392 68.8771 150.125 68.6783 149.875C68.4851 149.625 68.2237 149.423 67.8942 149.27C67.5646 149.116 67.1612 149.04 66.6839 149.04C66.0419 149.04 65.5021 149.179 65.0646 149.457C64.6328 149.736 64.4197 150.097 64.4254 150.54C64.4197 150.92 64.5589 151.23 64.843 151.469C65.1328 151.707 65.6101 151.903 66.2749 152.057L68.5078 152.534C69.7464 152.801 70.6669 153.224 71.2692 153.804C71.8771 154.384 72.1839 155.142 72.1896 156.08C72.1839 156.903 71.9425 157.631 71.4652 158.261C70.9936 158.886 70.3374 159.375 69.4964 159.727C68.6555 160.08 67.6896 160.256 66.5987 160.256C64.9964 160.256 63.7067 159.92 62.7294 159.25C61.7521 158.574 61.1697 157.634 60.9822 156.429L63.9908 156.139C64.1271 156.73 64.4169 157.176 64.8601 157.477C65.3033 157.778 65.88 157.929 66.5902 157.929C67.3232 157.929 67.9112 157.778 68.3544 157.477C68.8033 157.176 69.0277 156.804 69.0277 156.361C69.0277 155.986 68.8828 155.676 68.593 155.432C68.3089 155.187 67.8658 155 67.2635 154.869L65.0305 154.401C63.7749 154.139 62.8459 153.699 62.2436 153.08C61.6413 152.455 61.343 151.665 61.3487 150.71C61.343 149.903 61.5618 149.205 62.005 148.614C62.4538 148.017 63.076 147.557 63.8714 147.233C64.6726 146.903 65.5959 146.739 66.6413 146.739C68.1754 146.739 69.3828 147.065 70.2635 147.719C71.1499 148.372 71.6982 149.256 71.9084 150.369ZM85.0803 150.369L82.2678 150.676C82.1882 150.392 82.049 150.125 81.8501 149.875C81.657 149.625 81.3956 149.423 81.0661 149.27C80.7365 149.116 80.3331 149.04 79.8558 149.04C79.2138 149.04 78.674 149.179 78.2365 149.457C77.8047 149.736 77.5916 150.097 77.5973 150.54C77.5916 150.92 77.7308 151.23 78.0149 151.469C78.3047 151.707 78.782 151.903 79.4467 152.057L81.6797 152.534C82.9183 152.801 83.8388 153.224 84.4411 153.804C85.049 154.384 85.3558 155.142 85.3615 156.08C85.3558 156.903 85.1143 157.631 84.6371 158.261C84.1655 158.886 83.5092 159.375 82.6683 159.727C81.8274 160.08 80.8615 160.256 79.7706 160.256C78.1683 160.256 76.8786 159.92 75.9013 159.25C74.924 158.574 74.3416 157.634 74.1541 156.429L77.1626 156.139C77.299 156.73 77.5888 157.176 78.032 157.477C78.4751 157.778 79.0518 157.929 79.7621 157.929C80.495 157.929 81.0831 157.778 81.5263 157.477C81.9751 157.176 82.1996 156.804 82.1996 156.361C82.1996 155.986 82.0547 155.676 81.7649 155.432C81.4808 155.187 81.0376 155 80.4354 154.869L78.2024 154.401C76.9467 154.139 76.0178 153.699 75.4155 153.08C74.8132 152.455 74.5149 151.665 74.5206 150.71C74.5149 149.903 74.7337 149.205 75.1768 148.614C75.6257 148.017 76.2479 147.557 77.0433 147.233C77.8445 146.903 78.7678 146.739 79.8132 146.739C81.3473 146.739 82.5547 147.065 83.4354 147.719C84.3217 148.372 84.87 149.256 85.0803 150.369ZM91.6726 160.264C90.843 160.264 90.0959 160.116 89.4311 159.821C88.772 159.52 88.2493 159.077 87.8629 158.491C87.4822 157.906 87.2919 157.185 87.2919 156.327C87.2919 155.588 87.4283 154.977 87.701 154.494C87.9737 154.011 88.3459 153.625 88.8175 153.335C89.2891 153.045 89.8203 152.827 90.4112 152.679C91.0078 152.526 91.6243 152.415 92.2607 152.347C93.0277 152.267 93.6499 152.196 94.1271 152.134C94.6044 152.065 94.951 151.963 95.1669 151.827C95.3885 151.685 95.4993 151.466 95.4993 151.17V151.119C95.4993 150.477 95.3089 149.98 94.9283 149.628C94.5476 149.276 93.9993 149.099 93.2834 149.099C92.5277 149.099 91.9283 149.264 91.4851 149.594C91.0476 149.923 90.7521 150.312 90.5987 150.761L87.718 150.352C87.9453 149.557 88.3203 148.892 88.843 148.358C89.3658 147.818 90.005 147.415 90.7607 147.148C91.5163 146.875 92.3516 146.739 93.2663 146.739C93.897 146.739 94.5249 146.812 95.1499 146.96C95.7749 147.108 96.3459 147.352 96.8629 147.693C97.38 148.028 97.7947 148.486 98.1072 149.065C98.4254 149.645 98.5845 150.369 98.5845 151.239V160H95.6186V158.202H95.5163C95.3288 158.565 95.0646 158.906 94.7237 159.224C94.3885 159.537 93.9652 159.79 93.4538 159.983C92.9482 160.17 92.3544 160.264 91.6726 160.264ZM92.4737 157.997C93.093 157.997 93.63 157.875 94.0845 157.631C94.5391 157.381 94.8885 157.051 95.1328 156.642C95.3828 156.233 95.5078 155.787 95.5078 155.304V153.761C95.4112 153.841 95.2464 153.915 95.0135 153.983C94.7862 154.051 94.5305 154.111 94.2464 154.162C93.9624 154.213 93.6811 154.259 93.4027 154.298C93.1243 154.338 92.8828 154.372 92.6783 154.401C92.218 154.463 91.8061 154.565 91.4425 154.707C91.0788 154.849 90.7919 155.048 90.5817 155.304C90.3714 155.554 90.2663 155.878 90.2663 156.276C90.2663 156.844 90.4737 157.273 90.8885 157.562C91.3033 157.852 91.8317 157.997 92.4737 157.997ZM107.38 165.182C106.272 165.182 105.32 165.031 104.525 164.73C103.729 164.435 103.09 164.037 102.607 163.537C102.124 163.037 101.789 162.483 101.602 161.875L104.38 161.202C104.505 161.457 104.687 161.71 104.925 161.96C105.164 162.216 105.485 162.426 105.888 162.591C106.298 162.761 106.812 162.847 107.431 162.847C108.306 162.847 109.031 162.634 109.604 162.207C110.178 161.787 110.465 161.094 110.465 160.128V157.648H110.312C110.153 157.966 109.92 158.293 109.613 158.628C109.312 158.963 108.911 159.244 108.411 159.472C107.917 159.699 107.295 159.812 106.545 159.812C105.539 159.812 104.627 159.577 103.809 159.105C102.996 158.628 102.349 157.918 101.866 156.974C101.388 156.026 101.15 154.838 101.15 153.412C101.15 151.974 101.388 150.761 101.866 149.773C102.349 148.778 102.999 148.026 103.817 147.514C104.636 146.997 105.548 146.739 106.553 146.739C107.32 146.739 107.951 146.869 108.445 147.131C108.945 147.386 109.343 147.696 109.638 148.06C109.934 148.418 110.158 148.756 110.312 149.074H110.482V146.909H113.525V160.213C113.525 161.332 113.258 162.259 112.724 162.991C112.19 163.724 111.46 164.273 110.533 164.636C109.607 165 108.556 165.182 107.38 165.182ZM107.406 157.392C108.059 157.392 108.616 157.233 109.076 156.915C109.536 156.597 109.886 156.139 110.124 155.543C110.363 154.946 110.482 154.23 110.482 153.395C110.482 152.571 110.363 151.849 110.124 151.23C109.891 150.611 109.545 150.131 109.085 149.79C108.63 149.443 108.07 149.27 107.406 149.27C106.718 149.27 106.144 149.449 105.684 149.807C105.224 150.165 104.877 150.656 104.644 151.281C104.411 151.901 104.295 152.605 104.295 153.395C104.295 154.196 104.411 154.898 104.644 155.5C104.883 156.097 105.232 156.562 105.692 156.898C106.158 157.227 106.729 157.392 107.406 157.392ZM116.687 160V146.909H119.772V160H116.687ZM118.238 145.051C117.749 145.051 117.329 144.889 116.977 144.565C116.624 144.236 116.448 143.841 116.448 143.381C116.448 142.915 116.624 142.52 116.977 142.196C117.329 141.866 117.749 141.702 118.238 141.702C118.732 141.702 119.153 141.866 119.499 142.196C119.852 142.52 120.028 142.915 120.028 143.381C120.028 143.841 119.852 144.236 119.499 144.565C119.153 144.889 118.732 145.051 118.238 145.051ZM126.03 152.33V160H122.945V146.909H125.893V149.134H126.047C126.348 148.401 126.828 147.818 127.487 147.386C128.152 146.955 128.973 146.739 129.95 146.739C130.854 146.739 131.641 146.932 132.311 147.318C132.987 147.705 133.51 148.264 133.879 148.997C134.254 149.73 134.439 150.619 134.433 151.665V160H131.348V152.142C131.348 151.267 131.121 150.582 130.666 150.088C130.217 149.594 129.595 149.347 128.8 149.347C128.26 149.347 127.78 149.466 127.359 149.705C126.945 149.937 126.618 150.276 126.379 150.719C126.146 151.162 126.03 151.699 126.03 152.33ZM143.263 165.182C142.155 165.182 141.203 165.031 140.408 164.73C139.612 164.435 138.973 164.037 138.49 163.537C138.007 163.037 137.672 162.483 137.484 161.875L140.263 161.202C140.388 161.457 140.57 161.71 140.808 161.96C141.047 162.216 141.368 162.426 141.771 162.591C142.18 162.761 142.695 162.847 143.314 162.847C144.189 162.847 144.913 162.634 145.487 162.207C146.061 161.787 146.348 161.094 146.348 160.128V157.648H146.195C146.036 157.966 145.803 158.293 145.496 158.628C145.195 158.963 144.794 159.244 144.294 159.472C143.8 159.699 143.178 159.812 142.428 159.812C141.422 159.812 140.51 159.577 139.692 159.105C138.879 158.628 138.232 157.918 137.749 156.974C137.271 156.026 137.033 154.838 137.033 153.412C137.033 151.974 137.271 150.761 137.749 149.773C138.232 148.778 138.882 148.026 139.7 147.514C140.518 146.997 141.43 146.739 142.436 146.739C143.203 146.739 143.834 146.869 144.328 147.131C144.828 147.386 145.226 147.696 145.521 148.06C145.817 148.418 146.041 148.756 146.195 149.074H146.365V146.909H149.408V160.213C149.408 161.332 149.141 162.259 148.607 162.991C148.072 163.724 147.342 164.273 146.416 164.636C145.49 165 144.439 165.182 143.263 165.182ZM143.288 157.392C143.942 157.392 144.499 157.233 144.959 156.915C145.419 156.597 145.768 156.139 146.007 155.543C146.246 154.946 146.365 154.23 146.365 153.395C146.365 152.571 146.246 151.849 146.007 151.23C145.774 150.611 145.428 150.131 144.967 149.79C144.513 149.443 143.953 149.27 143.288 149.27C142.601 149.27 142.027 149.449 141.567 149.807C141.107 150.165 140.76 150.656 140.527 151.281C140.294 151.901 140.178 152.605 140.178 153.395C140.178 154.196 140.294 154.898 140.527 155.5C140.766 156.097 141.115 156.562 141.575 156.898C142.041 157.227 142.612 157.392 143.288 157.392Z" fill="#222222"/>
</g>
<g filter="url(#filter1_d_250_79)">
<ellipse cx="92.9367" cy="42.0635" rx="53.8413" ry="42.0635" fill="#3FA5FB"/>
</g>
<g filter="url(#filter2_d_250_79)">
<path d="M45.5206 90.0392L51.5269 53.9054L80.1415 81.5503L45.5206 90.0392Z" fill="#3FA5FB"/>
</g>
<g filter="url(#filter3_d_250_79)">
<ellipse cx="67.6627" cy="42.0272" rx="6.69421" ry="6.69421" fill="white"/>
</g>
<g filter="url(#filter4_d_250_79)">
<ellipse cx="90.4132" cy="42.0272" rx="6.69421" ry="6.69421" fill="white"/>
</g>
<g filter="url(#filter5_d_250_79)">
<ellipse cx="113.163" cy="42.0272" rx="6.69421" ry="6.69421" fill="white"/>
</g>
<defs>
<filter id="filter0_d_250_79" x="0" y="130" width="175" height="51" filterUnits="userSpaceOnUse" color-interpolation-filters="sRGB">
<feFlood flood-opacity="0" result="BackgroundImageFix"/>
<feColorMatrix in="SourceAlpha" type="matrix" values="0 0 0 0 0 0 0 0 0 0 0 0 0 0 0 0 0 0 127 0" result="hardAlpha"/>
<feOffset dy="4"/>
<feGaussianBlur stdDeviation="2"/>
<feComposite in2="hardAlpha" operator="out"/>
<feColorMatrix type="matrix" values="0 0 0 0 0 0 0 0 0 0 0 0 0 0 0 0 0 0 0.25 0"/>
<feBlend mode="normal" in2="BackgroundImageFix" result="effect1_dropShadow_250_79"/>
<feBlend mode="normal" in="SourceGraphic" in2="effect1_dropShadow_250_79" result="shape"/>
</filter>
<filter id="filter1_d_250_79" x="35.9547" y="0" width="113.964" height="90.4084" filterUnits="userSpaceOnUse" color-interpolation-filters="sRGB">
<feFlood flood-opacity="0" result="BackgroundImageFix"/>
<feColorMatrix in="SourceAlpha" type="matrix" values="0 0 0 0 0 0 0 0 0 0 0 0 0 0 0 0 0 0 127 0" result="hardAlpha"/>
<feOffset dy="3.14074"/>
<feGaussianBlur stdDeviation="1.57037"/>
<feComposite in2="hardAlpha" operator="out"/>
<feColorMatrix type="matrix" values="0 0 0 0 0 0 0 0 0 0 0 0 0 0 0 0 0 0 0.25 0"/>
<feBlend mode="normal" in2="BackgroundImageFix" result="effect1_dropShadow_250_79"/>
<feBlend mode="normal" in="SourceGraphic" in2="effect1_dropShadow_250_79" result="shape"/>
</filter>
<filter id="filter2_d_250_79" x="42.3799" y="53.9053" width="40.9023" height="42.4153" filterUnits="userSpaceOnUse" color-interpolation-filters="sRGB">
<feFlood flood-opacity="0" result="BackgroundImageFix"/>
<feColorMatrix in="SourceAlpha" type="matrix" values="0 0 0 0 0 0 0 0 0 0 0 0 0 0 0 0 0 0 127 0" result="hardAlpha"/>
<feOffset dy="3.14074"/>
<feGaussianBlur stdDeviation="1.57037"/>
<feComposite in2="hardAlpha" operator="out"/>
<feColorMatrix type="matrix" values="0 0 0 0 0 0 0 0 0 0 0 0 0 0 0 0 0 0 0.25 0"/>
<feBlend mode="normal" in2="BackgroundImageFix" result="effect1_dropShadow_250_79"/>
<feBlend mode="normal" in="SourceGraphic" in2="effect1_dropShadow_250_79" result="shape"/>
</filter>
<filter id="filter3_d_250_79" x="57.8278" y="35.333" width="19.6699" height="19.6702" filterUnits="userSpaceOnUse" color-interpolation-filters="sRGB">
<feFlood flood-opacity="0" result="BackgroundImageFix"/>
<feColorMatrix in="SourceAlpha" type="matrix" values="0 0 0 0 0 0 0 0 0 0 0 0 0 0 0 0 0 0 127 0" result="hardAlpha"/>
<feOffset dy="3.14074"/>
<feGaussianBlur stdDeviation="1.57037"/>
<feComposite in2="hardAlpha" operator="out"/>
<feColorMatrix type="matrix" values="0 0 0 0 0 0 0 0 0 0 0 0 0 0 0 0 0 0 0.25 0"/>
<feBlend mode="normal" in2="BackgroundImageFix" result="effect1_dropShadow_250_79"/>
<feBlend mode="normal" in="SourceGraphic" in2="effect1_dropShadow_250_79" result="shape"/>
</filter>
<filter id="filter4_d_250_79" x="80.5783" y="35.333" width="19.6699" height="19.6702" filterUnits="userSpaceOnUse" color-interpolation-filters="sRGB">
<feFlood flood-opacity="0" result="BackgroundImageFix"/>
<feColorMatrix in="SourceAlpha" type="matrix" values="0 0 0 0 0 0 0 0 0 0 0 0 0 0 0 0 0 0 127 0" result="hardAlpha"/>
<feOffset dy="3.14074"/>
<feGaussianBlur stdDeviation="1.57037"/>
<feComposite in2="hardAlpha" operator="out"/>
<feColorMatrix type="matrix" values="0 0 0 0 0 0 0 0 0 0 0 0 0 0 0 0 0 0 0.25 0"/>
<feBlend mode="normal" in2="BackgroundImageFix" result="effect1_dropShadow_250_79"/>
<feBlend mode="normal" in="SourceGraphic" in2="effect1_dropShadow_250_79" result="shape"/>
</filter>
<filter id="filter5_d_250_79" x="103.328" y="35.333" width="19.6699" height="19.6702" filterUnits="userSpaceOnUse" color-interpolation-filters="sRGB">
<feFlood flood-opacity="0" result="BackgroundImageFix"/>
<feColorMatrix in="SourceAlpha" type="matrix" values="0 0 0 0 0 0 0 0 0 0 0 0 0 0 0 0 0 0 127 0" result="hardAlpha"/>
<feOffset dy="3.14074"/>
<feGaussianBlur stdDeviation="1.57037"/>
<feComposite in2="hardAlpha" operator="out"/>
<feColorMatrix type="matrix" values="0 0 0 0 0 0 0 0 0 0 0 0 0 0 0 0 0 0 0.25 0"/>
<feBlend mode="normal" in2="BackgroundImageFix" result="effect1_dropShadow_250_79"/>
<feBlend mode="normal" in="SourceGraphic" in2="effect1_dropShadow_250_79" result="shape"/>
</filter>
</defs>
</svg>
