<svg width="182" height="186" viewBox="0 0 182 186" fill="none" xmlns="http://www.w3.org/2000/svg">
<g filter="url(#filter0_d_250_75)">
<rect x="4" y="135" width="174" height="43" rx="20" fill="#FBDC7E"/>
<path d="M46.7216 147.545H50.5909L55.7727 160.193H55.9773L61.1591 147.545H65.0284V165H61.9943V153.009H61.8324L57.0085 164.949H54.7415L49.9176 152.983H49.7557V165H46.7216V147.545ZM74.0455 165.256C72.767 165.256 71.6591 164.974 70.7216 164.412C69.7841 163.849 69.0568 163.062 68.5398 162.051C68.0284 161.04 67.7727 159.858 67.7727 158.506C67.7727 157.153 68.0284 155.969 68.5398 154.952C69.0568 153.935 69.7841 153.145 70.7216 152.582C71.6591 152.02 72.767 151.739 74.0455 151.739C75.3239 151.739 76.4318 152.02 77.3693 152.582C78.3068 153.145 79.0313 153.935 79.5426 154.952C80.0597 155.969 80.3182 157.153 80.3182 158.506C80.3182 159.858 80.0597 161.04 79.5426 162.051C79.0313 163.062 78.3068 163.849 77.3693 164.412C76.4318 164.974 75.3239 165.256 74.0455 165.256ZM74.0625 162.784C74.7557 162.784 75.3352 162.594 75.8011 162.213C76.267 161.827 76.6136 161.31 76.8409 160.662C77.0739 160.014 77.1903 159.293 77.1903 158.497C77.1903 157.696 77.0739 156.972 76.8409 156.324C76.6136 155.67 76.267 155.151 75.8011 154.764C75.3352 154.378 74.7557 154.185 74.0625 154.185C73.3523 154.185 72.7614 154.378 72.2898 154.764C71.8239 155.151 71.4744 155.67 71.2415 156.324C71.0142 156.972 70.9006 157.696 70.9006 158.497C70.9006 159.293 71.0142 160.014 71.2415 160.662C71.4744 161.31 71.8239 161.827 72.2898 162.213C72.7614 162.594 73.3523 162.784 74.0625 162.784ZM83.0732 165V147.545H86.1584V154.074H86.2862C86.4453 153.756 86.6697 153.418 86.9595 153.06C87.2493 152.696 87.6413 152.386 88.1357 152.131C88.63 151.869 89.2607 151.739 90.0277 151.739C91.0391 151.739 91.951 151.997 92.7635 152.514C93.5817 153.026 94.2294 153.784 94.7067 154.79C95.1896 155.79 95.4311 157.017 95.4311 158.472C95.4311 159.909 95.1953 161.131 94.7237 162.136C94.2521 163.142 93.6101 163.909 92.7976 164.438C91.9851 164.966 91.0646 165.23 90.0362 165.23C89.2862 165.23 88.6641 165.105 88.1697 164.855C87.6754 164.605 87.2777 164.304 86.9766 163.952C86.6811 163.594 86.451 163.256 86.2862 162.938H86.1072V165H83.0732ZM86.0987 158.455C86.0987 159.301 86.218 160.043 86.4567 160.679C86.701 161.315 87.0504 161.812 87.505 162.17C87.9652 162.523 88.522 162.699 89.1754 162.699C89.8572 162.699 90.4283 162.517 90.8885 162.153C91.3487 161.784 91.6953 161.281 91.9283 160.645C92.1669 160.003 92.2862 159.273 92.2862 158.455C92.2862 157.642 92.1697 156.92 91.9368 156.29C91.7038 155.659 91.3572 155.165 90.897 154.807C90.4368 154.449 89.8629 154.27 89.1754 154.27C88.5163 154.27 87.9567 154.443 87.4964 154.79C87.0362 155.136 86.6868 155.622 86.4482 156.247C86.2152 156.872 86.0987 157.608 86.0987 158.455ZM98.054 165V151.909H101.139V165H98.054ZM99.6051 150.051C99.1165 150.051 98.696 149.889 98.3438 149.565C97.9915 149.236 97.8153 148.841 97.8153 148.381C97.8153 147.915 97.9915 147.52 98.3438 147.196C98.696 146.866 99.1165 146.702 99.6051 146.702C100.099 146.702 100.52 146.866 100.866 147.196C101.219 147.52 101.395 147.915 101.395 148.381C101.395 148.841 101.219 149.236 100.866 149.565C100.52 149.889 100.099 150.051 99.6051 150.051ZM107.397 147.545V165H104.312V147.545H107.397ZM116.365 165.256C115.053 165.256 113.919 164.983 112.964 164.438C112.016 163.886 111.286 163.108 110.774 162.102C110.263 161.091 110.007 159.901 110.007 158.531C110.007 157.185 110.263 156.003 110.774 154.986C111.291 153.963 112.013 153.168 112.939 152.599C113.865 152.026 114.953 151.739 116.203 151.739C117.01 151.739 117.771 151.869 118.487 152.131C119.209 152.386 119.845 152.784 120.396 153.324C120.953 153.864 121.391 154.551 121.709 155.386C122.027 156.216 122.186 157.205 122.186 158.352V159.298H111.456V157.219H119.229C119.223 156.628 119.095 156.102 118.845 155.642C118.595 155.176 118.246 154.81 117.797 154.543C117.354 154.276 116.837 154.142 116.246 154.142C115.615 154.142 115.061 154.295 114.584 154.602C114.107 154.903 113.734 155.301 113.467 155.795C113.206 156.284 113.072 156.821 113.067 157.406V159.222C113.067 159.983 113.206 160.636 113.484 161.182C113.763 161.722 114.152 162.136 114.652 162.426C115.152 162.71 115.737 162.852 116.408 162.852C116.857 162.852 117.263 162.79 117.626 162.665C117.99 162.534 118.305 162.344 118.572 162.094C118.839 161.844 119.041 161.534 119.178 161.165L122.058 161.489C121.876 162.25 121.53 162.915 121.018 163.483C120.513 164.045 119.865 164.483 119.075 164.795C118.286 165.102 117.382 165.256 116.365 165.256ZM135.143 155.369L132.33 155.676C132.251 155.392 132.112 155.125 131.913 154.875C131.719 154.625 131.458 154.423 131.129 154.27C130.799 154.116 130.396 154.04 129.918 154.04C129.276 154.04 128.737 154.179 128.299 154.457C127.867 154.736 127.654 155.097 127.66 155.54C127.654 155.92 127.793 156.23 128.077 156.469C128.367 156.707 128.844 156.903 129.509 157.057L131.742 157.534C132.981 157.801 133.901 158.224 134.504 158.804C135.112 159.384 135.418 160.142 135.424 161.08C135.418 161.903 135.177 162.631 134.7 163.261C134.228 163.886 133.572 164.375 132.731 164.727C131.89 165.08 130.924 165.256 129.833 165.256C128.231 165.256 126.941 164.92 125.964 164.25C124.987 163.574 124.404 162.634 124.217 161.429L127.225 161.139C127.362 161.73 127.651 162.176 128.094 162.477C128.538 162.778 129.114 162.929 129.825 162.929C130.558 162.929 131.146 162.778 131.589 162.477C132.038 162.176 132.262 161.804 132.262 161.361C132.262 160.986 132.117 160.676 131.827 160.432C131.543 160.187 131.1 160 130.498 159.869L128.265 159.401C127.009 159.139 126.08 158.699 125.478 158.08C124.876 157.455 124.577 156.665 124.583 155.71C124.577 154.903 124.796 154.205 125.239 153.614C125.688 153.017 126.31 152.557 127.106 152.233C127.907 151.903 128.83 151.739 129.876 151.739C131.41 151.739 132.617 152.065 133.498 152.719C134.384 153.372 134.933 154.256 135.143 155.369Z" fill="#222222"/>
</g>
<g filter="url(#filter1_d_250_75)">
<path d="M51 22.7628C51 10.1912 61.1913 0 73.7628 0H107.238C119.809 0 130 10.1913 130 22.7628V93.7293C130 106.301 119.809 116.492 107.238 116.492H73.7628C61.1912 116.492 51 106.301 51 93.7293V22.7628Z" fill="#3FA5FB"/>
</g>
<g filter="url(#filter2_d_250_75)">
<path d="M60.373 33.4299C60.373 23.8414 68.146 16.0684 77.7345 16.0684H89.8308L103.266 16.0684C112.855 16.0684 120.628 23.8414 120.628 33.4298V83.7214C120.628 93.3098 112.855 101.083 103.266 101.083H77.7345C68.1461 101.083 60.373 93.3099 60.373 83.7214V33.4299Z" fill="white"/>
</g>
<g filter="url(#filter3_d_250_75)">
<rect x="88" y="106" width="8.03394" height="6.69495" rx="2.67798" fill="white"/>
</g>
<defs>
<filter id="filter0_d_250_75" x="0" y="135" width="182" height="51" filterUnits="userSpaceOnUse" color-interpolation-filters="sRGB">
<feFlood flood-opacity="0" result="BackgroundImageFix"/>
<feColorMatrix in="SourceAlpha" type="matrix" values="0 0 0 0 0 0 0 0 0 0 0 0 0 0 0 0 0 0 127 0" result="hardAlpha"/>
<feOffset dy="4"/>
<feGaussianBlur stdDeviation="2"/>
<feComposite in2="hardAlpha" operator="out"/>
<feColorMatrix type="matrix" values="0 0 0 0 0 0 0 0 0 0 0 0 0 0 0 0 0 0 0.25 0"/>
<feBlend mode="normal" in2="BackgroundImageFix" result="effect1_dropShadow_250_75"/>
<feBlend mode="normal" in="SourceGraphic" in2="effect1_dropShadow_250_75" result="shape"/>
</filter>
<filter id="filter1_d_250_75" x="47.7943" y="0" width="85.4118" height="122.904" filterUnits="userSpaceOnUse" color-interpolation-filters="sRGB">
<feFlood flood-opacity="0" result="BackgroundImageFix"/>
<feColorMatrix in="SourceAlpha" type="matrix" values="0 0 0 0 0 0 0 0 0 0 0 0 0 0 0 0 0 0 127 0" result="hardAlpha"/>
<feOffset dy="3.20571"/>
<feGaussianBlur stdDeviation="1.60285"/>
<feComposite in2="hardAlpha" operator="out"/>
<feColorMatrix type="matrix" values="0 0 0 0 0 0 0 0 0 0 0 0 0 0 0 0 0 0 0.25 0"/>
<feBlend mode="normal" in2="BackgroundImageFix" result="effect1_dropShadow_250_75"/>
<feBlend mode="normal" in="SourceGraphic" in2="effect1_dropShadow_250_75" result="shape"/>
</filter>
<filter id="filter2_d_250_75" x="57.1673" y="16.0684" width="66.6659" height="91.4261" filterUnits="userSpaceOnUse" color-interpolation-filters="sRGB">
<feFlood flood-opacity="0" result="BackgroundImageFix"/>
<feColorMatrix in="SourceAlpha" type="matrix" values="0 0 0 0 0 0 0 0 0 0 0 0 0 0 0 0 0 0 127 0" result="hardAlpha"/>
<feOffset dy="3.20571"/>
<feGaussianBlur stdDeviation="1.60285"/>
<feComposite in2="hardAlpha" operator="out"/>
<feColorMatrix type="matrix" values="0 0 0 0 0 0 0 0 0 0 0 0 0 0 0 0 0 0 0.25 0"/>
<feBlend mode="normal" in2="BackgroundImageFix" result="effect1_dropShadow_250_75"/>
<feBlend mode="normal" in="SourceGraphic" in2="effect1_dropShadow_250_75" result="shape"/>
</filter>
<filter id="filter3_d_250_75" x="84.7943" y="106" width="14.4453" height="13.1067" filterUnits="userSpaceOnUse" color-interpolation-filters="sRGB">
<feFlood flood-opacity="0" result="BackgroundImageFix"/>
<feColorMatrix in="SourceAlpha" type="matrix" values="0 0 0 0 0 0 0 0 0 0 0 0 0 0 0 0 0 0 127 0" result="hardAlpha"/>
<feOffset dy="3.20571"/>
<feGaussianBlur stdDeviation="1.60285"/>
<feComposite in2="hardAlpha" operator="out"/>
<feColorMatrix type="matrix" values="0 0 0 0 0 0 0 0 0 0 0 0 0 0 0 0 0 0 0.25 0"/>
<feBlend mode="normal" in2="BackgroundImageFix" result="effect1_dropShadow_250_75"/>
<feBlend mode="normal" in="SourceGraphic" in2="effect1_dropShadow_250_75" result="shape"/>
</filter>
</defs>
</svg>
