<svg width="170" height="57" viewBox="0 0 170 57" fill="none" xmlns="http://www.w3.org/2000/svg">
<g filter="url(#filter0_d_139_68)">
<rect x="4" width="162" height="49" rx="17" fill="#FBDC7D"/>
<path d="M29.4868 20.6232L39.7996 11.7178C40.7023 10.9382 42.125 11.5711 42.125 12.7821V17.4727C51.5369 17.5805 59 19.4668 59 28.3863C59 31.9863 56.6808 35.5528 54.1172 37.4175C53.3172 37.9994 52.1771 37.269 52.4721 36.3258C55.1289 27.829 51.2119 25.5733 42.125 25.4425V30.5938C42.125 31.8066 40.7012 32.4367 39.7996 31.658L29.4868 22.7518C28.8382 22.1915 28.8373 21.1842 29.4868 20.6232Z" fill="#AA4747"/>
<path d="M75.7216 33V15.5455H82.267C83.608 15.5455 84.733 15.7784 85.642 16.2443C86.5568 16.7102 87.2472 17.3636 87.7131 18.2045C88.1847 19.0398 88.4205 20.0142 88.4205 21.1278C88.4205 22.2472 88.1818 23.2187 87.7045 24.0426C87.233 24.8608 86.5369 25.4943 85.6165 25.9432C84.696 26.3864 83.5653 26.608 82.2244 26.608H77.5625V23.983H81.7983C82.5824 23.983 83.2244 23.875 83.7244 23.6591C84.2244 23.4375 84.5938 23.1165 84.8324 22.696C85.0767 22.2699 85.1989 21.7472 85.1989 21.1278C85.1989 20.5085 85.0767 19.9801 84.8324 19.5426C84.5881 19.0994 84.2159 18.7642 83.7159 18.5369C83.2159 18.304 82.571 18.1875 81.7812 18.1875H78.8835V33H75.7216ZM84.7386 25.0909L89.0597 33H85.5312L81.2869 25.0909H84.7386ZM97.2826 33.2557C95.9701 33.2557 94.8365 32.983 93.882 32.4375C92.9331 31.8864 92.203 31.108 91.6916 30.1023C91.1803 29.0909 90.9246 27.9006 90.9246 26.5312C90.9246 25.1847 91.1803 24.0028 91.6916 22.9858C92.2087 21.9631 92.9303 21.1676 93.8564 20.5994C94.7826 20.0256 95.8706 19.7386 97.1206 19.7386C97.9274 19.7386 98.6888 19.8693 99.4047 20.1307C100.126 20.3864 100.763 20.7841 101.314 21.3239C101.871 21.8636 102.308 22.5511 102.626 23.3864C102.944 24.2159 103.104 25.2045 103.104 26.3523V27.2983H92.3735V25.2188H100.146C100.141 24.6278 100.013 24.1023 99.7627 23.642C99.5127 23.1761 99.1632 22.8097 98.7144 22.5426C98.2712 22.2756 97.7541 22.142 97.1632 22.142C96.5326 22.142 95.9786 22.2955 95.5013 22.6023C95.024 22.9034 94.6519 23.3011 94.3848 23.7955C94.1235 24.2841 93.9899 24.821 93.9843 25.4062V27.2216C93.9843 27.983 94.1235 28.6364 94.4019 29.1818C94.6803 29.7216 95.0695 30.1364 95.5695 30.4261C96.0695 30.7102 96.6547 30.8523 97.3252 30.8523C97.774 30.8523 98.1803 30.7898 98.5439 30.6648C98.9076 30.5341 99.2229 30.3438 99.4899 30.0938C99.757 29.8438 99.9587 29.5341 100.095 29.1648L102.976 29.4886C102.794 30.25 102.447 30.9148 101.936 31.483C101.43 32.0455 100.783 32.483 99.9928 32.7955C99.203 33.1023 98.2996 33.2557 97.2826 33.2557ZM106.194 37.9091V19.9091H109.228V22.0739H109.407C109.566 21.7557 109.79 21.4176 110.08 21.0597C110.37 20.696 110.762 20.3864 111.256 20.1307C111.75 19.8693 112.381 19.7386 113.148 19.7386C114.16 19.7386 115.072 19.9972 115.884 20.5142C116.702 21.0256 117.35 21.7841 117.827 22.7898C118.31 23.7898 118.552 25.017 118.552 26.4716C118.552 27.9091 118.316 29.1307 117.844 30.1364C117.373 31.142 116.731 31.9091 115.918 32.4375C115.106 32.9659 114.185 33.2301 113.157 33.2301C112.407 33.2301 111.785 33.1051 111.29 32.8551C110.796 32.6051 110.398 32.304 110.097 31.9517C109.802 31.5937 109.572 31.2557 109.407 30.9375H109.279V37.9091H106.194ZM109.219 26.4545C109.219 27.3011 109.339 28.0426 109.577 28.679C109.822 29.3153 110.171 29.8125 110.625 30.1705C111.086 30.5227 111.643 30.6989 112.296 30.6989C112.978 30.6989 113.549 30.517 114.009 30.1534C114.469 29.7841 114.816 29.2812 115.049 28.6449C115.287 28.0028 115.407 27.2727 115.407 26.4545C115.407 25.642 115.29 24.9205 115.057 24.2898C114.824 23.6591 114.478 23.1648 114.018 22.8068C113.557 22.4489 112.983 22.2699 112.296 22.2699C111.637 22.2699 111.077 22.4432 110.617 22.7898C110.157 23.1364 109.807 23.6222 109.569 24.2472C109.336 24.8722 109.219 25.608 109.219 26.4545ZM124.759 15.5455V33H121.674V15.5455H124.759ZM130.329 37.9091C129.909 37.9091 129.519 37.875 129.161 37.8068C128.809 37.7443 128.528 37.6705 128.318 37.5852L129.034 35.1818C129.482 35.3125 129.883 35.375 130.235 35.3693C130.588 35.3636 130.897 35.2528 131.164 35.0369C131.437 34.8267 131.667 34.4744 131.855 33.9801L132.119 33.2727L127.372 19.9091H130.644L133.661 29.7955H133.798L136.823 19.9091H140.105L134.863 34.5852C134.619 35.2784 134.295 35.8722 133.892 36.3665C133.488 36.8665 132.994 37.2472 132.409 37.5085C131.829 37.7756 131.136 37.9091 130.329 37.9091Z" fill="#222222"/>
</g>
<defs>
<filter id="filter0_d_139_68" x="0" y="0" width="170" height="57" filterUnits="userSpaceOnUse" color-interpolation-filters="sRGB">
<feFlood flood-opacity="0" result="BackgroundImageFix"/>
<feColorMatrix in="SourceAlpha" type="matrix" values="0 0 0 0 0 0 0 0 0 0 0 0 0 0 0 0 0 0 127 0" result="hardAlpha"/>
<feOffset dy="4"/>
<feGaussianBlur stdDeviation="2"/>
<feComposite in2="hardAlpha" operator="out"/>
<feColorMatrix type="matrix" values="0 0 0 0 0 0 0 0 0 0 0 0 0 0 0 0 0 0 0.25 0"/>
<feBlend mode="normal" in2="BackgroundImageFix" result="effect1_dropShadow_139_68"/>
<feBlend mode="normal" in="SourceGraphic" in2="effect1_dropShadow_139_68" result="shape"/>
</filter>
</defs>
</svg>
