<svg width="183" height="175" viewBox="0 0 183 175" fill="none" xmlns="http://www.w3.org/2000/svg">
<g filter="url(#filter0_d_250_76)">
<rect x="4" y="124" width="175" height="43" rx="20" fill="#FBDC7E"/>
<path d="M50.7244 136.545H53.8864V147.949C53.8864 149.199 53.5909 150.298 53 151.247C52.4148 152.196 51.5909 152.937 50.5284 153.472C49.4659 154 48.2244 154.264 46.804 154.264C45.3778 154.264 44.1335 154 43.071 153.472C42.0085 152.937 41.1847 152.196 40.5994 151.247C40.0142 150.298 39.7216 149.199 39.7216 147.949V136.545H42.8835V147.685C42.8835 148.412 43.0426 149.06 43.3608 149.628C43.6847 150.196 44.1392 150.642 44.7244 150.966C45.3097 151.284 46.0028 151.443 46.804 151.443C47.6051 151.443 48.2983 151.284 48.8835 150.966C49.4744 150.642 49.929 150.196 50.2472 149.628C50.5653 149.06 50.7244 148.412 50.7244 147.685V136.545ZM57.1868 158.909V140.909H60.2209V143.074H60.3999C60.5589 142.756 60.7834 142.418 61.0732 142.06C61.3629 141.696 61.755 141.386 62.2493 141.131C62.7436 140.869 63.3743 140.739 64.1413 140.739C65.1527 140.739 66.0646 140.997 66.8771 141.514C67.6953 142.026 68.343 142.784 68.8203 143.79C69.3033 144.79 69.5447 146.017 69.5447 147.472C69.5447 148.909 69.3089 150.131 68.8374 151.136C68.3658 152.142 67.7237 152.909 66.9112 153.438C66.0987 153.966 65.1783 154.23 64.1499 154.23C63.3999 154.23 62.7777 154.105 62.2834 153.855C61.7891 153.605 61.3913 153.304 61.0902 152.952C60.7947 152.594 60.5646 152.256 60.3999 151.938H60.272V158.909H57.1868ZM60.2124 147.455C60.2124 148.301 60.3317 149.043 60.5703 149.679C60.8146 150.315 61.1641 150.812 61.6186 151.17C62.0788 151.523 62.6357 151.699 63.2891 151.699C63.9709 151.699 64.5419 151.517 65.0021 151.153C65.4624 150.784 65.8089 150.281 66.0419 149.645C66.2805 149.003 66.3999 148.273 66.3999 147.455C66.3999 146.642 66.2834 145.92 66.0504 145.29C65.8175 144.659 65.4709 144.165 65.0107 143.807C64.5504 143.449 63.9766 143.27 63.2891 143.27C62.63 143.27 62.0703 143.443 61.6101 143.79C61.1499 144.136 60.8004 144.622 60.5618 145.247C60.3288 145.872 60.2124 146.608 60.2124 147.455ZM77.0447 154.23C76.0163 154.23 75.0959 153.966 74.2834 153.438C73.4709 152.909 72.8288 152.142 72.3572 151.136C71.8857 150.131 71.6499 148.909 71.6499 147.472C71.6499 146.017 71.8885 144.79 72.3658 143.79C72.8487 142.784 73.4993 142.026 74.3175 141.514C75.1357 140.997 76.0476 140.739 77.0533 140.739C77.8203 140.739 78.451 140.869 78.9453 141.131C79.4396 141.386 79.8317 141.696 80.1214 142.06C80.4112 142.418 80.6357 142.756 80.7947 143.074H80.9226V136.545H84.0163V154H80.9822V151.938H80.7947C80.6357 152.256 80.4055 152.594 80.1044 152.952C79.8033 153.304 79.4055 153.605 78.9112 153.855C78.4169 154.105 77.7947 154.23 77.0447 154.23ZM77.9055 151.699C78.5589 151.699 79.1158 151.523 79.576 151.17C80.0362 150.812 80.3857 150.315 80.6243 149.679C80.8629 149.043 80.9822 148.301 80.9822 147.455C80.9822 146.608 80.8629 145.872 80.6243 145.247C80.3913 144.622 80.0447 144.136 79.5845 143.79C79.13 143.443 78.5703 143.27 77.9055 143.27C77.218 143.27 76.6442 143.449 76.1839 143.807C75.7237 144.165 75.3771 144.659 75.1442 145.29C74.9112 145.92 74.7947 146.642 74.7947 147.455C74.7947 148.273 74.9112 149.003 75.1442 149.645C75.3828 150.281 75.7322 150.784 76.1925 151.153C76.6584 151.517 77.2294 151.699 77.9055 151.699ZM91.071 154.264C90.2415 154.264 89.4943 154.116 88.8295 153.821C88.1705 153.52 87.6477 153.077 87.2614 152.491C86.8807 151.906 86.6903 151.185 86.6903 150.327C86.6903 149.588 86.8267 148.977 87.0994 148.494C87.3722 148.011 87.7443 147.625 88.2159 147.335C88.6875 147.045 89.2188 146.827 89.8097 146.679C90.4063 146.526 91.0227 146.415 91.6591 146.347C92.4261 146.267 93.0483 146.196 93.5256 146.134C94.0028 146.065 94.3494 145.963 94.5653 145.827C94.7869 145.685 94.8977 145.466 94.8977 145.17V145.119C94.8977 144.477 94.7074 143.98 94.3267 143.628C93.946 143.276 93.3977 143.099 92.6818 143.099C91.9261 143.099 91.3267 143.264 90.8835 143.594C90.446 143.923 90.1506 144.312 89.9972 144.761L87.1165 144.352C87.3438 143.557 87.7188 142.892 88.2415 142.358C88.7642 141.818 89.4034 141.415 90.1591 141.148C90.9148 140.875 91.75 140.739 92.6648 140.739C93.2955 140.739 93.9233 140.812 94.5483 140.96C95.1733 141.108 95.7443 141.352 96.2614 141.693C96.7784 142.028 97.1932 142.486 97.5057 143.065C97.8239 143.645 97.983 144.369 97.983 145.239V154H95.017V152.202H94.9148C94.7273 152.565 94.4631 152.906 94.1222 153.224C93.7869 153.537 93.3636 153.79 92.8523 153.983C92.3466 154.17 91.7528 154.264 91.071 154.264ZM91.8722 151.997C92.4915 151.997 93.0284 151.875 93.483 151.631C93.9375 151.381 94.2869 151.051 94.5312 150.642C94.7812 150.233 94.9062 149.787 94.9062 149.304V147.761C94.8097 147.841 94.6449 147.915 94.4119 147.983C94.1847 148.051 93.929 148.111 93.6449 148.162C93.3608 148.213 93.0795 148.259 92.8011 148.298C92.5227 148.338 92.2813 148.372 92.0767 148.401C91.6165 148.463 91.2045 148.565 90.8409 148.707C90.4773 148.849 90.1903 149.048 89.9801 149.304C89.7699 149.554 89.6648 149.878 89.6648 150.276C89.6648 150.844 89.8722 151.273 90.2869 151.562C90.7017 151.852 91.2301 151.997 91.8722 151.997ZM107.622 140.909V143.295H100.097V140.909H107.622ZM101.955 137.773H105.04V150.062C105.04 150.477 105.102 150.795 105.227 151.017C105.358 151.233 105.528 151.381 105.739 151.46C105.949 151.54 106.182 151.58 106.438 151.58C106.631 151.58 106.807 151.565 106.966 151.537C107.131 151.509 107.256 151.483 107.341 151.46L107.861 153.872C107.696 153.929 107.46 153.991 107.153 154.06C106.852 154.128 106.483 154.168 106.045 154.179C105.273 154.202 104.577 154.085 103.957 153.83C103.338 153.568 102.847 153.165 102.483 152.619C102.125 152.074 101.949 151.392 101.955 150.574V137.773ZM110.202 154V140.909H113.288V154H110.202ZM111.754 139.051C111.265 139.051 110.844 138.889 110.492 138.565C110.14 138.236 109.964 137.841 109.964 137.381C109.964 136.915 110.14 136.52 110.492 136.196C110.844 135.866 111.265 135.702 111.754 135.702C112.248 135.702 112.668 135.866 113.015 136.196C113.367 136.52 113.543 136.915 113.543 137.381C113.543 137.841 113.367 138.236 113.015 138.565C112.668 138.889 112.248 139.051 111.754 139.051ZM119.545 146.33V154H116.46V140.909H119.409V143.134H119.562C119.864 142.401 120.344 141.818 121.003 141.386C121.668 140.955 122.489 140.739 123.466 140.739C124.369 140.739 125.156 140.932 125.827 141.318C126.503 141.705 127.026 142.264 127.395 142.997C127.77 143.73 127.955 144.619 127.949 145.665V154H124.864V146.142C124.864 145.267 124.636 144.582 124.182 144.088C123.733 143.594 123.111 143.347 122.315 143.347C121.776 143.347 121.295 143.466 120.875 143.705C120.46 143.937 120.134 144.276 119.895 144.719C119.662 145.162 119.545 145.699 119.545 146.33ZM136.778 159.182C135.67 159.182 134.719 159.031 133.923 158.73C133.128 158.435 132.489 158.037 132.006 157.537C131.523 157.037 131.188 156.483 131 155.875L133.778 155.202C133.903 155.457 134.085 155.71 134.324 155.96C134.563 156.216 134.884 156.426 135.287 156.591C135.696 156.761 136.21 156.847 136.83 156.847C137.705 156.847 138.429 156.634 139.003 156.207C139.577 155.787 139.864 155.094 139.864 154.128V151.648H139.71C139.551 151.966 139.318 152.293 139.011 152.628C138.71 152.963 138.31 153.244 137.81 153.472C137.315 153.699 136.693 153.812 135.943 153.812C134.938 153.812 134.026 153.577 133.207 153.105C132.395 152.628 131.747 151.918 131.264 150.974C130.787 150.026 130.548 148.838 130.548 147.412C130.548 145.974 130.787 144.761 131.264 143.773C131.747 142.778 132.398 142.026 133.216 141.514C134.034 140.997 134.946 140.739 135.952 140.739C136.719 140.739 137.349 140.869 137.844 141.131C138.344 141.386 138.741 141.696 139.037 142.06C139.332 142.418 139.557 142.756 139.71 143.074H139.881V140.909H142.923V154.213C142.923 155.332 142.656 156.259 142.122 156.991C141.588 157.724 140.858 158.273 139.932 158.636C139.006 159 137.955 159.182 136.778 159.182ZM136.804 151.392C137.457 151.392 138.014 151.233 138.474 150.915C138.935 150.597 139.284 150.139 139.523 149.543C139.761 148.946 139.881 148.23 139.881 147.395C139.881 146.571 139.761 145.849 139.523 145.23C139.29 144.611 138.943 144.131 138.483 143.79C138.028 143.443 137.469 143.27 136.804 143.27C136.116 143.27 135.543 143.449 135.082 143.807C134.622 144.165 134.276 144.656 134.043 145.281C133.81 145.901 133.693 146.605 133.693 147.395C133.693 148.196 133.81 148.898 134.043 149.5C134.281 150.097 134.631 150.562 135.091 150.898C135.557 151.227 136.128 151.392 136.804 151.392Z" fill="#222222"/>
</g>
<g filter="url(#filter1_d_250_76)">
<circle cx="91.52" cy="51.48" r="47.52" fill="white"/>
</g>
<circle cx="90.4699" cy="51.921" r="44.6031" stroke="#3FA5FB" stroke-width="3.36627" stroke-dasharray="3.37 3.37"/>
<path d="M119.918 79.896C118.209 81.4706 118.1 84.1326 119.675 85.8418C121.249 87.5509 123.911 87.66 125.62 86.0853L119.918 79.896ZM105.618 6.47636L107.923 55.0096L148.802 28.7467L105.618 6.47636ZM131.707 46.8716L135.503 45.0561L135.376 44.7914L135.214 44.5468L131.707 46.8716ZM126.333 79.7069L129.185 82.8016L126.333 79.7069ZM132.381 48.2816L128.585 50.0971L132.381 48.2816ZM125.62 86.0853L129.185 82.8016L123.482 76.6122L119.918 79.896L125.62 86.0853ZM136.177 46.4661L135.503 45.0561L127.911 48.6871L128.585 50.0971L136.177 46.4661ZM135.214 44.5468C133.207 41.5192 131.343 38.6865 129.611 36.0373L122.567 40.6409C124.308 43.3066 126.183 46.1546 128.199 49.1964L135.214 44.5468ZM129.185 82.8016C139.239 73.5382 142.076 58.7996 136.177 46.4661L128.585 50.0971C132.889 59.0973 130.82 69.8524 123.482 76.6122L129.185 82.8016Z" fill="#3FA5FB"/>
<circle cx="90.4699" cy="51.921" r="44.6031" stroke="#3FA5FB" stroke-width="3.36627" stroke-dasharray="3.37 3.37"/>
<path d="M119.918 79.896C118.209 81.4706 118.1 84.1326 119.675 85.8418C121.249 87.5509 123.911 87.66 125.62 86.0853L119.918 79.896ZM105.618 6.47636L107.923 55.0096L148.802 28.7467L105.618 6.47636ZM131.707 46.8716L135.503 45.0561L135.376 44.7914L135.214 44.5468L131.707 46.8716ZM126.333 79.7069L129.185 82.8016L126.333 79.7069ZM132.381 48.2816L128.585 50.0971L132.381 48.2816ZM125.62 86.0853L129.185 82.8016L123.482 76.6122L119.918 79.896L125.62 86.0853ZM136.177 46.4661L135.503 45.0561L127.911 48.6871L128.585 50.0971L136.177 46.4661ZM135.214 44.5468C133.207 41.5192 131.343 38.6865 129.611 36.0373L122.567 40.6409C124.308 43.3066 126.183 46.1546 128.199 49.1964L135.214 44.5468ZM129.185 82.8016C139.239 73.5382 142.076 58.7996 136.177 46.4661L128.585 50.0971C132.889 59.0973 130.82 69.8524 123.482 76.6122L129.185 82.8016Z" fill="#3FA5FB"/>
<path d="M44.1836 0V-1.68314H42.5005V0H44.1836ZM141.864 0H143.547V-1.68314H141.864V0ZM141.864 98.2071V99.8902H143.547V98.2071H141.864ZM44.1836 98.2071H42.5005V99.8902H44.1836V98.2071ZM44.1836 1.68314H141.864V-1.68314H44.1836V1.68314ZM140.18 0V98.2071H143.547V0H140.18ZM141.864 96.5239H44.1836V99.8902H141.864V96.5239ZM45.8667 98.2071V0H42.5005V98.2071H45.8667Z" fill="white"/>
<defs>
<filter id="filter0_d_250_76" x="0" y="124" width="183" height="51" filterUnits="userSpaceOnUse" color-interpolation-filters="sRGB">
<feFlood flood-opacity="0" result="BackgroundImageFix"/>
<feColorMatrix in="SourceAlpha" type="matrix" values="0 0 0 0 0 0 0 0 0 0 0 0 0 0 0 0 0 0 127 0" result="hardAlpha"/>
<feOffset dy="4"/>
<feGaussianBlur stdDeviation="2"/>
<feComposite in2="hardAlpha" operator="out"/>
<feColorMatrix type="matrix" values="0 0 0 0 0 0 0 0 0 0 0 0 0 0 0 0 0 0 0.25 0"/>
<feBlend mode="normal" in2="BackgroundImageFix" result="effect1_dropShadow_250_76"/>
<feBlend mode="normal" in="SourceGraphic" in2="effect1_dropShadow_250_76" result="shape"/>
</filter>
<filter id="filter1_d_250_76" x="41.36" y="3.95996" width="100.32" height="100.32" filterUnits="userSpaceOnUse" color-interpolation-filters="sRGB">
<feFlood flood-opacity="0" result="BackgroundImageFix"/>
<feColorMatrix in="SourceAlpha" type="matrix" values="0 0 0 0 0 0 0 0 0 0 0 0 0 0 0 0 0 0 127 0" result="hardAlpha"/>
<feOffset dy="2.64"/>
<feGaussianBlur stdDeviation="1.32"/>
<feComposite in2="hardAlpha" operator="out"/>
<feColorMatrix type="matrix" values="0 0 0 0 0 0 0 0 0 0 0 0 0 0 0 0 0 0 0.25 0"/>
<feBlend mode="normal" in2="BackgroundImageFix" result="effect1_dropShadow_250_76"/>
<feBlend mode="normal" in="SourceGraphic" in2="effect1_dropShadow_250_76" result="shape"/>
</filter>
</defs>
</svg>
